<?xml version="1.0" encoding="UTF-8" standalone="no"?>
<!DOCTYPE svg  PUBLIC '-//W3C//DTD SVG 1.1//EN'  'http://www.w3.org/Graphics/SVG/1.1/DTD/svg11.dtd'>
<svg xmlns="http://www.w3.org/2000/svg">
<defs>
<font id="NeutraTextTF-Book" horiz-adv-x="520">
<font-face underline-position="-123" font-weight="500" descent="-200" panose-1="2 0 0 0 0 0 0 0 0 0" units-per-em="1000" unicode-range="U+0020-25CA" bbox="-57 -232 1058 946" x-height="414" underline-thickness="20" font-family="NeutraTextTF" ascent="800" cap-height="680"/>
<missing-glyph horiz-adv-x="1000"/>
<glyph glyph-name=".notdef" horiz-adv-x="1000"/>
<glyph glyph-name=".notdef" horiz-adv-x="1000"/>
<glyph glyph-name=".null" horiz-adv-x="0"/>
<glyph glyph-name="nonmarkingreturn" horiz-adv-x="333"/>
<glyph glyph-name="space" horiz-adv-x="200" unicode=" "/>
<glyph glyph-name="exclam" horiz-adv-x="244" unicode="!" d="M122 -7q-21 0 -37 15.5t-16 37.5q0 23 16 38.5t37 15.5t37 -15.5t16 -38.5q0 -22 -16 -37.5t-37 -15.5zM95 190l-12 490h78l-12 -490h-54z"/>
<glyph glyph-name="quotedbl" horiz-adv-x="283" unicode='&quot;' d="M48 470l-8 210h74l-8 -210h-58zM178 470l-9 210h74l-8 -210h-57z"/>
<glyph glyph-name="numbersign" d="M325 447h-104l-27 -106h104zM162 447h-79v57h93l27 109h59l-27 -109h104l27 109h59l-27 -109h73v-57h-87l-27 -106h78v-57h-92l-27 -108h-59l27 108h-104l-27 -108h-59l27 108h-73v57h87z" unicode="#"/>
<glyph glyph-name="dollar" d="M284 48q98 6 98 82q0 37 -22 57t-76 35v-174zM233 456q-83 -7 -83 -70q0 -35 18 -51.5t65 -29.5v151zM233 -6q-126 13 -175 113l55 29q35 -73 120 -86v187q-78 23 -113 56t-35 90q0 54 41.5 88.5t106.5 39.5v106h51v-107q46 -7 82 -31t55 -58l-49 -33q-32 57 -88 66v-165 l6 -2q80 -23 119 -60t39 -95q0 -132 -164 -140v-111h-51v113z" unicode="$"/>
<glyph glyph-name="percent" horiz-adv-x="750" unicode="%" d="M573 45q36 0 60 26t24 67t-24 67t-60 26q-37 0 -61 -26t-24 -67t24 -67t61 -26zM178 272q36 0 60 26t24 67t-24 67t-60 26q-37 0 -61 -26t-24 -67t24 -67t61 -26zM573 -8q-60 0 -102 41.5t-42 104.5t42.5 105t101.5 42t101 -42t42 -105t-42 -104.5t-101 -41.5zM182 0 l315 504h70l-315 -504h-70zM178 218q-60 0 -102 42t-42 105t42.5 105t101.5 42q58 0 100.5 -42t42.5 -105t-42.5 -105t-100.5 -42z"/>
<glyph glyph-name="ampersand" horiz-adv-x="654" unicode="&amp;" d="M430 140l-176 213q-68 -37 -102 -75.5t-34 -96.5q0 -59 37 -92t104 -33q107 0 171 84zM279 430q96 56 96 119q0 36 -21.5 57.5t-55.5 21.5q-36 0 -57 -21t-21 -58q0 -48 40 -96zM316 385l150 -182q29 70 29 165h69q0 -126 -51 -222l120 -146h-87l-73 88q-85 -96 -214 -96 q-99 0 -157.5 50.5t-58.5 134.5q0 77 43.5 124.5t131.5 95.5l-12 15q-55 68 -55 136q0 60 40 100t106 40q64 0 104 -39.5t40 -99.5q0 -92 -125 -164z"/>
<glyph glyph-name="quotesingle" horiz-adv-x="154" unicode="&apos;" d="M48 470l-8 210h74l-8 -210h-58z"/>
<glyph glyph-name="parenleft" horiz-adv-x="300" unicode="(" d="M217 -135q-165 177 -165 426t165 426l45 -34q-137 -168 -137 -392t137 -392z"/>
<glyph glyph-name="parenright" horiz-adv-x="300" unicode=")" d="M82 -135l-44 34q136 169 136 392t-136 392l44 34q166 -178 166 -426t-166 -426z"/>
<glyph glyph-name="asterisk" horiz-adv-x="394" unicode="*" d="M165 375l15 125l-98 -73l-31 54l117 47l-117 47l31 54l98 -72l-15 123h63l-15 -123l99 72l31 -54l-118 -47l117 -47l-30 -54l-99 73l15 -125h-63z"/>
<glyph glyph-name="plus" d="M292 221v-152h-64v152h-142v62h142v152h64v-152h142v-62h-142z" unicode="+"/>
<glyph glyph-name="comma" horiz-adv-x="200" unicode="," d="M43 -112l39 111q-36 12 -36 49q0 22 16.5 38t37.5 16q22 0 38 -16t16 -38q0 -18 -12 -40l-60 -120h-39z"/>
<glyph glyph-name="hyphen" horiz-adv-x="286" unicode="-" d="M46 200v63h193v-63h-193z"/>
<glyph glyph-name="hyphen" horiz-adv-x="286" unicode="­" d="M46 200v63h193v-63h-193z"/>
<glyph glyph-name="period" horiz-adv-x="200" unicode="." d="M100 -7q-21 0 -37.5 16t-16.5 39t16 38.5t38 15.5t38 -15.5t16 -38.5t-16 -39t-38 -16z"/>
<glyph glyph-name="slash" horiz-adv-x="428" unicode="/" d="M15 -128l300 850h70l-300 -850h-70z"/>
<glyph glyph-name="zero" d="M259 55q68 0 107.5 53t39.5 144q0 93 -39 145t-108 52q-68 0 -107 -52t-39 -145q0 -91 39 -144t107 -53zM259 -8q-97 0 -158 72.5t-61 187.5q0 116 61 188t158 72q98 0 159.5 -72t61.5 -188q0 -115 -61 -187.5t-160 -72.5z" unicode="0"/>
<glyph glyph-name="one" d="M228 60v384h-128v60h199v-444h128v-60h-340v60h141z" unicode="1"/>
<glyph glyph-name="two" d="M50 0v9l203 185q56 51 81 86.5t25 74.5q0 45 -27 69t-71 24q-91 0 -125 -102l-64 18q18 69 68.5 108.5t119.5 39.5q79 0 125 -42t46 -112q0 -48 -31 -94.5t-91 -101.5l-76 -69q-8 -8 -21 -16.5t-22 -13.5l-9 -5q37 3 56 3h207v-61h-394z" unicode="2"/>
<glyph glyph-name="three" d="M247 -103q-76 0 -131 34.5t-83 95.5l62 29q45 -96 152 -96q60 0 99.5 38.5t39.5 105.5t-37 103t-106 36q-45 0 -81 -18l-7 10l149 180l31 33q-26 -4 -48 -4h-202v60h364v-7l-144 -173l-30 -27q80 -2 132.5 -55t52.5 -139q0 -91 -59.5 -148.5t-153.5 -57.5z" unicode="3"/>
<glyph glyph-name="four" d="M335 80v221l4 56q-17 -28 -32 -47l-153 -195q-7 -9 -16 -18l-14 -14l-6 -5q26 2 48 2h169zM405 80h74v-59h-74v-115h-70v115h-306v34l366 459h10v-434z" unicode="4"/>
<glyph glyph-name="five" d="M247 -103q-71 0 -122 30t-76 79l59 32q44 -78 139 -78q63 0 101 39t38 103q0 66 -35.5 103t-104.5 37q-77 0 -140 -53l-9 3v312h328v-60h-267v-167q41 26 101 26q91 0 146 -56t55 -145q0 -90 -58.5 -147.5t-154.5 -57.5z" unicode="5"/>
<glyph glyph-name="six" d="M260 54q62 0 100.5 38.5t38.5 98.5q0 62 -36.5 100t-100.5 38q-62 0 -100 -40t-38 -98q0 -60 37 -98.5t99 -38.5zM261 -8q-88 0 -147.5 55.5t-59.5 142.5q0 73 63 164l172 256h79l-140 -208q-7 -10 -19 -23t-21 -21l-9 -9q44 37 96 37q83 0 138.5 -55t55.5 -140 t-59.5 -142t-148.5 -57z" unicode="6"/>
<glyph glyph-name="seven" d="M109 -94l255 538h-306v60h402v-9l-278 -589h-73z" unicode="7"/>
<glyph glyph-name="eight" d="M259 55q63 0 101 35.5t38 92.5q0 58 -38 94.5t-101 36.5q-62 0 -99.5 -36.5t-37.5 -94.5t37 -93t100 -35zM260 372q44 0 71.5 26t27.5 68q0 41 -27.5 67t-71.5 26q-45 0 -72 -26t-27 -67q0 -42 27 -68t72 -26zM171 346q-77 38 -77 123q0 62 47.5 105.5t118.5 43.5 t119 -43.5t48 -105.5q0 -84 -78 -123q56 -20 88.5 -63.5t32.5 -103.5q0 -82 -60.5 -134.5t-150.5 -52.5q-89 0 -149.5 53t-60.5 134q0 60 33 103.5t89 63.5z" unicode="8"/>
<glyph glyph-name="nine" d="M258 176q62 0 100.5 39.5t38.5 97.5q0 60 -37.5 98t-99.5 38t-100.5 -38t-38.5 -98q0 -62 36.5 -99.5t100.5 -37.5zM158 -94l134 197q7 9 19 22t21 21l9 9q-46 -37 -96 -37q-83 0 -138.5 55t-55.5 140t59.5 142t148.5 57q87 0 147.5 -56t60.5 -142q0 -71 -64 -164 l-166 -244h-79z" unicode="9"/>
<glyph glyph-name="colon" horiz-adv-x="200" unicode=":" d="M100 -7q-21 0 -37.5 16t-16.5 39t16 38.5t38 15.5t38 -15.5t16 -38.5t-16 -39t-38 -16zM100 217q-21 0 -37.5 16t-16.5 39t16 38.5t38 15.5t38 -15.5t16 -38.5t-16 -39t-38 -16z"/>
<glyph glyph-name="less" d="M405 74l-320 165v10l320 163v-64l-212 -105l212 -105v-64z" unicode="&lt;"/>
<glyph glyph-name="equal" d="M85 152v62h350v-62h-350zM85 282v61h350v-61h-350z" unicode="="/>
<glyph glyph-name="greater" d="M115 74v64l212 105l-212 105v64l320 -165v-10z" unicode="&gt;"/>
<glyph glyph-name="question" horiz-adv-x="469" unicode="?" d="M206 -7q-21 0 -37 15.5t-16 37.5q0 23 16 38.5t37 15.5t37 -15.5t16 -38.5q0 -22 -16 -37.5t-37 -15.5zM174 187v176h33q65 0 102.5 38t37.5 96q0 59 -34.5 93.5t-90.5 34.5q-50 0 -82 -21t-55 -67l-58 30q25 59 75.5 90t119.5 31q88 0 142.5 -52.5t54.5 -138.5 q0 -79 -49.5 -131t-129.5 -58v-121h-66z"/>
<glyph glyph-name="at" horiz-adv-x="886" unicode="@" d="M436 50q50 0 84 38.5t34 94.5t-34 95.5t-84 39.5q-52 0 -85 -39t-33 -96t33 -95t85 -38zM448 -206q-170 0 -284.5 109.5t-114.5 285.5q0 170 116.5 283.5t281.5 113.5q169 0 279.5 -105.5t110.5 -263.5q0 -111 -42.5 -167t-112.5 -56q-100 0 -116 94q-43 -96 -144 -96 q-75 0 -125 54t-50 137t50 138.5t124 55.5q92 0 133 -86l-2 76h69v-231q0 -44 14.5 -66t48.5 -22q41 0 66 41.5t25 126.5q0 138 -89.5 226t-238.5 88q-145 0 -238.5 -97.5t-93.5 -243.5q0 -148 91.5 -244t241.5 -96q90 0 164 40l26 -50q-81 -45 -190 -45z"/>
<glyph glyph-name="A" horiz-adv-x="656" unicode="A" d="M178 176h293l-120 302l-26 81q-14 -49 -27 -81zM37 0l282 687h12l288 -687h-76l-46 114h-344l-45 -114h-71z"/>
<glyph glyph-name="B" horiz-adv-x="609" unicode="B" d="M165 64h178q75 0 111 37.5t36 100.5t-38 100.5t-113 37.5h-174v-276zM165 402h164q57 0 83.5 29t26.5 78q0 107 -120 107h-154v-214zM93 0v680h231q91 0 139 -47t48 -120q0 -106 -88 -135q66 -16 103 -63t37 -115q0 -89 -55 -144.5t-160 -55.5h-255z"/>
<glyph glyph-name="C" horiz-adv-x="726" unicode="C" d="M403 -8q-147 0 -248 98t-101 250t101 250t248 98q182 0 270 -132l-55 -40q-72 107 -215 107q-119 0 -196.5 -80.5t-77.5 -202.5t77.5 -202.5t196.5 -80.5q145 0 224 114l56 -39q-46 -67 -118 -103.5t-162 -36.5z"/>
<glyph glyph-name="D" horiz-adv-x="680" unicode="D" d="M165 65h88q146 0 221.5 74.5t75.5 200.5t-75.5 200.5t-221.5 74.5h-88v-550zM93 0v680h165q170 0 269 -92.5t99 -247.5t-99 -247.5t-269 -92.5h-165z"/>
<glyph glyph-name="E" horiz-adv-x="580" unicode="E" d="M93 0v680h414v-64h-342v-319h305v-63h-305v-170h356v-64h-428z"/>
<glyph glyph-name="F" horiz-adv-x="556" unicode="F" d="M93 0v680h409v-64h-337v-319h306v-66h-306v-231h-72z"/>
<glyph glyph-name="G" horiz-adv-x="743" unicode="G" d="M410 -8q-153 0 -254.5 97.5t-101.5 250.5q0 152 100 250t250 98q155 0 237 -88l-49 -49q-69 72 -188 72q-120 0 -197.5 -80.5t-77.5 -202.5t79 -202.5t202 -80.5q124 0 201 62v140h-202v64h270v-237q-96 -94 -269 -94z"/>
<glyph glyph-name="H" horiz-adv-x="694" unicode="H" d="M93 0v680h72v-383h364v383h72v-680h-72v231h-364v-231h-72z"/>
<glyph glyph-name="I" horiz-adv-x="265" unicode="I" d="M96 0v680h73v-680h-73z"/>
<glyph glyph-name="J" horiz-adv-x="483" unicode="J" d="M209 -8q-121 0 -176 102l59 37q43 -74 114 -74q52 0 82 30.5t30 93.5v499h73v-501q0 -91 -50 -139t-132 -48z"/>
<glyph glyph-name="K" horiz-adv-x="607" unicode="K" d="M159 265q32 62 49 84l257 331h81l-252 -328l279 -352h-89l-237 299l-82 -99v-200h-72v680h72v-322q0 -27 -6 -93z"/>
<glyph glyph-name="L" horiz-adv-x="527" unicode="L" d="M93 0v680h72v-616h321v-64h-393z"/>
<glyph glyph-name="M" horiz-adv-x="837" unicode="M" d="M93 0v688h10l316 -395l314 395h11v-688h-70v449l3 78q-26 -44 -48 -71l-206 -260h-12l-203 260l-49 71q4 -47 4 -78v-449h-70z"/>
<glyph glyph-name="N" horiz-adv-x="713" unicode="N" d="M608 -7l-406 480l-47 63q6 -48 6 -77v-459h-68v687h12l406 -480l47 -63q-5 48 -5 77v459h67v-687h-12z"/>
<glyph glyph-name="O" horiz-adv-x="807" unicode="O" d="M403 57q119 0 197 80.5t78 202.5t-78 202.5t-197 80.5q-118 0 -196 -80.5t-78 -202.5t78 -202.5t196 -80.5zM403 -8q-147 0 -248 98t-101 250t101 250t248 98q148 0 249 -98t101 -250t-101 -250t-249 -98z"/>
<glyph glyph-name="P" horiz-adv-x="584" unicode="P" d="M165 232h78q109 0 159.5 51.5t50.5 140.5t-50.5 140.5t-159.5 51.5h-78v-384zM93 0v680h154q136 0 208.5 -69t72.5 -187q0 -116 -72.5 -185.5t-208.5 -69.5h-82v-169h-72z"/>
<glyph glyph-name="Q" horiz-adv-x="807" unicode="Q" d="M554 99l-103 112l49 42l104 -113q74 79 74 200q0 122 -78 202.5t-197 80.5q-118 0 -196 -80.5t-78 -202.5t78 -202.5t196 -80.5q86 0 151 42zM651 89l103 -110l-50 -42l-104 112q-89 -57 -197 -57q-147 0 -248 98t-101 250t101 250t248 98q148 0 249 -98t101 -250 q0 -151 -102 -251z"/>
<glyph glyph-name="R" horiz-adv-x="596" unicode="R" d="M165 243h77q110 0 160.5 50t50.5 136t-51 136.5t-160 50.5h-77v-373zM386 209l148 -209h-85l-131 186q-34 -6 -72 -6h-81v-180h-72v680h153q136 0 209 -68.5t73 -182.5q0 -78 -36 -135t-106 -85z"/>
<glyph glyph-name="S" horiz-adv-x="531" unicode="S" d="M266 -8q-168 0 -237 138l60 32q28 -49 68.5 -77.5t106.5 -28.5q61 0 101 31.5t40 84.5q0 49 -30 80.5t-98 61.5l-54 25q-78 35 -114 76.5t-36 109.5q0 73 50.5 118t128.5 45q123 0 184 -102l-58 -36q-46 74 -126 74q-50 0 -79 -26.5t-29 -70.5q0 -43 24 -68.5t84 -53.5 l54 -25q89 -39 130 -86.5t41 -121.5q0 -83 -59 -131.5t-152 -48.5z"/>
<glyph glyph-name="T" horiz-adv-x="556" unicode="T" d="M242 0v616h-209v64h490v-64h-209v-616h-72z"/>
<glyph glyph-name="U" horiz-adv-x="662" unicode="U" d="M331 -8q-108 0 -176 62.5t-68 177.5v448h72v-443q0 -89 45.5 -135t126.5 -46t126.5 46t45.5 135v443h72v-448q0 -115 -68 -177.5t-176 -62.5z"/>
<glyph glyph-name="V" horiz-adv-x="656" unicode="V" d="M324 -7l-287 687h78l187 -461l29 -92q15 58 29 92l186 461h73l-283 -687h-12z"/>
<glyph glyph-name="W" horiz-adv-x="953" unicode="W" d="M260 -7l-225 687h77l143 -453l19 -74q11 45 22 74l177 460h12l177 -460l22 -74q10 45 19 74l142 453h73l-224 -687h-12l-183 484l-20 67q-10 -39 -21 -67l-186 -484h-12z"/>
<glyph glyph-name="X" horiz-adv-x="635" unicode="X" d="M43 0l233 370l-196 310h82l135 -212l22 -47q10 30 21 47l134 212h79l-195 -310l235 -370h-82l-173 272l-23 48q-10 -30 -21 -48l-172 -272h-79z"/>
<glyph glyph-name="Y" horiz-adv-x="656" unicode="Y" d="M294 0v213l-257 467h81l185 -338q7 -12 14 -29t11 -29l4 -11q15 42 29 69l184 338h75l-252 -464v-216h-74z"/>
<glyph glyph-name="Z" horiz-adv-x="581" unicode="Z" d="M39 0v11l380 605h-326v64h438v-11l-379 -605h381v-64h-494z"/>
<glyph glyph-name="bracketleft" horiz-adv-x="300" unicode="[" d="M73 -128v850h190v-60h-120v-730h120v-60h-190z"/>
<glyph glyph-name="backslash" horiz-adv-x="429" unicode="\" d="M344 -128l-301 850h70l301 -850h-70z"/>
<glyph glyph-name="bracketright" horiz-adv-x="300" unicode="]" d="M37 -128v60h119v730h-119v60h191v-850h-191z"/>
<glyph glyph-name="asciicircum" horiz-adv-x="417" unicode="^" d="M68 463l136 225h9l136 -225h-58l-82 126l-83 -126h-58z"/>
<glyph glyph-name="underscore" horiz-adv-x="256" unicode="_" d="M-2 -128v62h260v-62h-260z"/>
<glyph glyph-name="grave" horiz-adv-x="500" unicode="`" d="M224 498l-93 193h80l68 -193h-55z"/>
<glyph glyph-name="a" horiz-adv-x="471" unicode="a" d="M331 190h-124q-94 0 -94 -69q0 -72 100 -72q49 0 83.5 24.5t34.5 64.5v52zM331 243v10q0 111 -97 111q-76 0 -121 -60l-43 39q59 80 169 80q72 0 117 -43t45 -126v-254h-70l3 62q-47 -70 -137 -70q-69 0 -110.5 32t-41.5 94q0 61 44 93t113 32h129z"/>
<glyph glyph-name="b" horiz-adv-x="551" unicode="b" d="M288 53q65 0 104 43.5t39 111.5q0 67 -39 110t-104 43q-66 0 -106.5 -43t-40.5 -110q0 -68 40.5 -111.5t106.5 -43.5zM302 -8q-54 0 -96 26.5t-64 70.5l2 -89h-69v722h69v-393q51 94 159 94q85 0 142.5 -61.5t57.5 -153.5q0 -93 -58 -154.5t-143 -61.5z"/>
<glyph glyph-name="c" horiz-adv-x="467" unicode="c" d="M263 -8q-91 0 -153 62t-62 153t62 153.5t153 62.5q102 0 163 -74l-50 -41q-40 53 -113 53q-65 0 -104 -43.5t-39 -110.5t39 -110.5t104 -43.5q74 0 119 54l48 -41q-61 -74 -167 -74z"/>
<glyph glyph-name="d" horiz-adv-x="551" unicode="d" d="M263 53q66 0 106.5 43.5t40.5 111.5q0 67 -40.5 110t-106.5 43q-65 0 -104 -43t-39 -110q0 -68 39 -111.5t104 -43.5zM249 -8q-85 0 -143 61.5t-58 154.5q0 92 58 153.5t142 61.5q108 0 159 -94v393h69v-722h-69l2 89q-22 -44 -64 -70.5t-96 -26.5z"/>
<glyph glyph-name="e" horiz-adv-x="516" unicode="e" d="M119 237h281q-5 56 -40.5 91.5t-97.5 35.5q-58 0 -96.5 -34.5t-46.5 -92.5zM118 184q7 -61 47 -97t107 -36q82 0 131 55l43 -42q-64 -72 -174 -72q-100 0 -162 61.5t-62 153.5q0 91 61.5 153.5t152.5 62.5q95 0 151.5 -63.5t56.5 -163.5v-12h-352z"/>
<glyph glyph-name="f" horiz-adv-x="318" unicode="f" d="M101 0v355h-67v59h67v188q0 67 31 100t84 33q70 0 105 -51l-46 -41q-22 29 -53 29q-51 0 -51 -70v-188h111v-59h-111v-355h-70z"/>
<glyph glyph-name="g" horiz-adv-x="471" unicode="g" d="M160 0q-73 -22 -73 -81q0 -86 143 -86q70 0 109.5 23t39.5 65q0 35 -25 51.5t-90 20.5zM234 182q46 0 72.5 25.5t26.5 68.5q0 42 -26.5 67.5t-72.5 25.5q-47 0 -73.5 -25.5t-26.5 -67.5q0 -43 26.5 -68.5t73.5 -25.5zM294 414h150v-53h-81q33 -35 33 -85q0 -64 -45 -106 t-116 -42q-50 0 -85 19q-34 -9 -34 -42q0 -39 54 -42l106 -8q174 -13 174 -131q0 -68 -59 -107.5t-161 -39.5q-99 0 -155.5 36.5t-56.5 99.5q0 78 98 108q-58 19 -58 77q0 53 57 76q-45 39 -45 102q0 64 46.5 105.5t118.5 41.5q32 0 59 -9z"/>
<glyph glyph-name="h" horiz-adv-x="516" unicode="h" d="M74 0v722h70v-389q20 42 58.5 66t88.5 24q70 0 112.5 -45.5t42.5 -125.5v-252h-70v244q0 115 -103 115q-58 0 -93.5 -35t-35.5 -96v-228h-70z"/>
<glyph glyph-name="i" horiz-adv-x="222" unicode="i" d="M76 0v414h70v-414h-70zM111 534q-20 0 -35 14t-15 35t15 35.5t35 14.5t35 -14.5t15 -35.5t-15 -35t-35 -14z"/>
<glyph glyph-name="j" horiz-adv-x="222" unicode="j" d="M35 -222q-55 0 -92 41l39 42q25 -23 48 -23q46 0 46 63v513h70v-512q0 -60 -30 -92t-81 -32zM111 534q-20 0 -35 14t-15 35t15 35.5t35 14.5t35 -14.5t15 -35.5t-15 -35t-35 -14z"/>
<glyph glyph-name="k" horiz-adv-x="463" unicode="k" d="M144 126v-126h-70v722h70v-463q0 -31 -5 -59l197 214h81l-159 -174l184 -240h-83l-150 194z"/>
<glyph glyph-name="l" horiz-adv-x="228" unicode="l" d="M79 0v722h70v-722h-70z"/>
<glyph glyph-name="m" horiz-adv-x="757" unicode="m" d="M74 0v414h70l-2 -78q42 87 130 87q95 0 125 -87q48 87 143 87q68 0 107.5 -42.5t39.5 -115.5v-265h-69v256q0 103 -91 103q-51 0 -81 -33.5t-30 -93.5v-232h-70v256q0 103 -90 103q-51 0 -81.5 -33.5t-30.5 -93.5v-232h-70z"/>
<glyph glyph-name="n" horiz-adv-x="516" unicode="n" d="M74 0v414h70l-2 -85q20 44 59.5 69t89.5 25q70 0 112.5 -45.5t42.5 -125.5v-252h-70v244q0 115 -103 115q-58 0 -93.5 -35t-35.5 -96v-228h-70z"/>
<glyph glyph-name="o" horiz-adv-x="534" unicode="o" d="M268 52q65 0 106 44t41 111t-41 111t-106 44q-66 0 -107.5 -44t-41.5 -111t41.5 -111t107.5 -44zM268 -8q-93 0 -156.5 62t-63.5 153t63.5 153.5t156.5 62.5q92 0 155 -62.5t63 -153.5t-63 -153t-155 -62z"/>
<glyph glyph-name="p" horiz-adv-x="551" unicode="p" d="M288 53q65 0 104 43.5t39 111.5q0 67 -39 110t-104 43q-66 0 -106.5 -43t-40.5 -110q0 -68 40.5 -111.5t106.5 -43.5zM75 -212v626h69l-2 -89q50 98 161 98q85 0 142.5 -61.5t57.5 -153.5q0 -93 -58 -154.5t-143 -61.5q-54 0 -95.5 26t-62.5 68v-298h-69z"/>
<glyph glyph-name="q" horiz-adv-x="552" unicode="q" d="M263 53q66 0 106.5 43.5t40.5 111.5q0 67 -40.5 110t-106.5 43q-65 0 -104 -43t-39 -110q0 -68 39 -111.5t104 -43.5zM407 -212v298q-21 -42 -62.5 -68t-95.5 -26q-85 0 -143 61.5t-58 154.5q0 92 58 153.5t142 61.5q111 0 161 -98l-2 89h70v-626h-70z"/>
<glyph glyph-name="r" horiz-adv-x="357" unicode="r" d="M74 0v414h70l-2 -81q37 89 121 89q43 0 72 -20l-27 -61q-23 16 -57 16q-47 0 -77 -35t-30 -104v-218h-70z"/>
<glyph glyph-name="s" horiz-adv-x="410" unicode="s" d="M213 -8q-64 0 -109.5 27t-67.5 69l54 31q42 -70 120 -70q42 0 65 16.5t23 45.5q0 31 -22.5 44.5t-85.5 31.5q-60 17 -92.5 43.5t-32.5 79.5q0 52 38.5 82.5t97.5 30.5q91 0 138 -67l-48 -37q-34 47 -90 47q-33 0 -52.5 -14.5t-19.5 -38.5q0 -28 20 -41t78 -30 q64 -17 100.5 -45t36.5 -82q0 -55 -38 -89t-113 -34z"/>
<glyph glyph-name="t" horiz-adv-x="336" unicode="t" d="M209 -9q-51 0 -81 32t-30 102v230h-64v59h64v216h69v-216h116v-59h-116v-231q0 -72 49 -72q30 0 56 24l38 -44q-39 -41 -101 -41z"/>
<glyph glyph-name="u" horiz-adv-x="515" unicode="u" d="M225 -9q-70 0 -112.5 45.5t-42.5 123.5v254h70v-247q0 -112 102 -112q59 0 94 35.5t35 95.5v228h70v-414h-70l2 84q-20 -44 -59 -68.5t-89 -24.5z"/>
<glyph glyph-name="v" horiz-adv-x="462" unicode="v" d="M226 -8l-201 422h77l110 -239q6 -12 11.5 -30t8.5 -29l3 -12q9 43 22 71l108 239h72l-198 -422h-13z"/>
<glyph glyph-name="w" horiz-adv-x="683" unicode="w" d="M195 -9l-170 423h76l89 -228l19 -64q8 37 21 64l108 234h9l110 -233q6 -12 11.5 -28.5t7.5 -26.5l3 -10q8 38 19 65l89 227h71l-172 -423h-10l-114 249q-5 11 -10 26.5t-8 25.5l-2 9q-9 -37 -20 -61l-117 -249h-10z"/>
<glyph glyph-name="x" horiz-adv-x="470" unicode="x" d="M31 0l164 220l-142 194h83l78 -108l24 -43q8 27 20 43l79 108h77l-140 -189l165 -225h-84l-98 136l-26 46q-12 -30 -24 -46l-99 -136h-77z"/>
<glyph glyph-name="y" horiz-adv-x="462" unicode="y" d="M95 -212l106 247l-176 379h77l117 -257q5 -12 9.5 -29.5t7.5 -29.5l2 -11q7 44 19 70l108 257h72l-270 -626h-72z"/>
<glyph glyph-name="z" horiz-adv-x="417" unicode="z" d="M32 0v10l239 346h-213v58h326v-11l-241 -345h236v-58h-347z"/>
<glyph glyph-name="braceleft" horiz-adv-x="300" unicode="{" d="M225 -128q-133 0 -133 144v151q0 38 -14 53.5t-44 15.5h-33v61h33q30 0 44 15.5t14 53.5v212q0 144 133 144h38v-60h-33q-34 0 -50.5 -19t-16.5 -66v-218q0 -78 -65 -92q65 -14 65 -93v-157q0 -47 16.5 -66t50.5 -19h33v-60h-38z"/>
<glyph glyph-name="bar" horiz-adv-x="237" unicode="|" d="M85 -128v850h67v-850h-67z"/>
<glyph glyph-name="braceright" horiz-adv-x="300" unicode="}" d="M36 -128v60h34q33 0 49.5 19t16.5 66v157q0 79 65 93q-65 14 -65 92v218q0 47 -16.5 66t-49.5 19h-34v60h38q133 0 133 -144v-212q0 -38 14.5 -53.5t43.5 -15.5h33v-61h-33q-29 0 -43.5 -15.5t-14.5 -53.5v-151q0 -144 -133 -144h-38z"/>
<glyph glyph-name="asciitilde" horiz-adv-x="393" unicode="~" d="M103 224l-52 5q2 53 25.5 82t60.5 29q33 0 69 -33q30 -25 41 -27q3 -1 7 -1q30 0 36 59l52 -5q-2 -53 -24.5 -81.5t-60.5 -28.5q-33 0 -69 33q-21 17 -29 22t-20 5q-30 0 -36 -59z"/>
<glyph glyph-name="nbspace" horiz-adv-x="182" unicode=" "/>
<glyph glyph-name="exclamdown" horiz-adv-x="244" unicode="¡" d="M149 490l12 -490h-78l12 490h54zM122 687q21 0 37 -15.5t16 -37.5q0 -23 -16 -38.5t-37 -15.5t-37 15.5t-16 38.5q0 22 16 37.5t37 15.5z"/>
<glyph glyph-name="cent" d="M257 359q-52 -10 -83 -51.5t-31 -100.5t30.5 -100.5t83.5 -51.5v304zM257 -6q-81 11 -133 70.5t-52 142.5t52.5 143t132.5 71v108h51v-107q88 -6 143 -73l-49 -40q-35 45 -94 52v-308q61 7 100 54l48 -41q-56 -67 -148 -73v-109h-51v110z" unicode="¢"/>
<glyph glyph-name="sterling" d="M190 86q-41 36 -69 36q-21 0 -33.5 -11t-12.5 -30t13 -30t33 -11q24 0 42.5 13t26.5 33zM155 260h-95v56h71q-31 78 -31 132q0 73 49.5 121.5t131.5 48.5q124 0 176 -109l-57 -31q-21 41 -47.5 59t-71.5 18q-51 0 -80.5 -29.5t-29.5 -81.5q0 -47 30 -128h154v-56h-133 q31 -89 31 -148v-8q65 -50 111 -50q31 0 49.5 9t38.5 32l42 -43q-25 -31 -54 -45.5t-74 -14.5q-63 0 -133 56q-37 -56 -109 -56q-47 0 -75.5 25.5t-28.5 65.5q0 39 27.5 63t69.5 24q37 0 74 -22q-6 38 -36 112z" unicode="£"/>
<glyph glyph-name="currency" d="M80 283h-61v56h72q23 78 82.5 125.5t136.5 47.5q123 0 187 -97l-52 -37q-25 39 -55 56t-80 17t-88.5 -30t-57.5 -82h192v-56h-204q0 -5 -0.5 -15t-0.5 -16q0 -12 2 -32h203v-56h-191q18 -52 56.5 -81.5t88.5 -29.5q52 0 82.5 19.5t54.5 58.5l55 -34q-63 -105 -192 -105 q-75 0 -134.5 47t-83.5 125h-73v56h62q-2 20 -2 32q0 21 1 31z" unicode="¤"/>
<glyph glyph-name="yen" d="M222 167l-38 69h-137v56h106l-117 212h79l124 -229q7 -13 13 -29.5t8 -26.5l2 -10q8 36 24 66l124 229h73l-117 -212h106v-56h-137l-38 -69h175v-56h-177v-111h-71v111h-177v56h175z" unicode="¥"/>
<glyph glyph-name="brokenbar" horiz-adv-x="200" unicode="¦" d="M101 189q-21 0 -37.5 16t-16.5 39t16 38.5t38 15.5t38 -15.5t16 -38.5t-16 -39t-38 -16z"/>
<glyph glyph-name="section" d="M360 138q50 18 50 62q0 31 -18.5 51t-68.5 40l-98 39q-44 17 -69 44q-44 -21 -44 -69q0 -34 18 -54t66 -39l90 -35q41 -14 74 -39zM256 -103q-66 0 -114 29t-70 79l56 27q40 -76 126 -76q44 0 69.5 20.5t25.5 54.5q0 29 -19 47.5t-63 35.5l-89 35q-71 27 -102 61t-31 87 q0 74 81 109q-20 32 -20 73q0 61 44.5 100t111.5 39q115 0 160 -101l-57 -26q-15 33 -38 51t-63 18q-41 0 -65.5 -21t-24.5 -58q0 -32 16 -52t55 -36l98 -39q70 -27 101.5 -62t31.5 -83q0 -72 -80 -104q23 -31 23 -74q0 -61 -43 -97.5t-120 -36.5z" unicode="§"/>
<glyph glyph-name="dieresis" horiz-adv-x="500" unicode="¨" d="M163 516q-18 0 -32 13.5t-14 32.5t14 32.5t32 13.5q19 0 33 -13.5t14 -32.5t-14 -32.5t-33 -13.5zM337 516q-18 0 -32.5 14t-14.5 32q0 19 14.5 32.5t32.5 13.5t32 -13.5t14 -32.5t-14 -32.5t-32 -13.5z"/>
<glyph glyph-name="copyright" horiz-adv-x="598" unicode="©" d="M303 103q-63 0 -105.5 42.5t-42.5 106.5t42 107t104 43q67 0 115 -51l-41 -38q-26 34 -70 34q-38 0 -62 -27t-24 -68q0 -40 24 -67t62 -27q44 0 73 36l41 -38q-46 -53 -116 -53zM300 33q92 0 154.5 62t62.5 157q0 96 -62.5 158t-154.5 62q-93 0 -156 -62t-63 -158 q0 -95 63 -157t156 -62zM300 -7q-108 0 -184.5 74.5t-76.5 184.5q0 111 76.5 185.5t184.5 74.5q107 0 183 -74.5t76 -185.5q0 -110 -76 -184.5t-183 -74.5z"/>
<glyph glyph-name="ordfeminine" horiz-adv-x="402" unicode="ª" d="M284 314h-99q-81 0 -81 -57q0 -59 82 -59q42 0 70 20.5t28 55.5v40zM284 363q0 53 -21 74t-61 21q-60 0 -101 -50l-40 35q49 69 146 69q64 0 103 -36t39 -111v-211h-65l1 46q-38 -54 -114 -54q-58 0 -95 28t-37 81q0 52 39.5 80t99.5 28h106z"/>
<glyph glyph-name="guillemotleft" horiz-adv-x="397" unicode="«" d="M132 37l-94 159v8l94 157h72l-96 -161l96 -163h-72zM287 37l-94 159v8l94 157h72l-96 -161l96 -163h-72z"/>
<glyph glyph-name="logicalnot" horiz-adv-x="200" unicode="¬" d="M101 189q-21 0 -37.5 16t-16.5 39t16 38.5t38 15.5t38 -15.5t16 -38.5t-16 -39t-38 -16z"/>
<glyph glyph-name="registered" horiz-adv-x="514" unicode="®" d="M222 455h29q58 0 58 53q0 54 -58 54h-29v-107zM306 432l47 -70h-48l-39 59q-4 -1 -14 -1h-30v-58h-44v237h73q49 0 75.5 -26t26.5 -64q0 -54 -47 -77zM255 300q79 0 130 49.5t51 129.5q0 81 -51 130.5t-130 49.5q-77 0 -126.5 -49.5t-49.5 -130.5q0 -80 49.5 -129.5 t126.5 -49.5zM255 265q-90 0 -153.5 61.5t-63.5 152.5q0 93 63 154t154 61q92 0 156.5 -61.5t64.5 -153.5q0 -91 -64.5 -152.5t-156.5 -61.5z"/>
<glyph glyph-name="degree" horiz-adv-x="350" unicode="°" d="M175 332q29 0 46.5 18.5t17.5 48.5t-17.5 48.5t-46.5 18.5t-47 -19t-18 -48t18 -48t47 -19zM175 286q-48 0 -82.5 33t-34.5 80q0 48 34.5 80.5t82.5 32.5t82.5 -32.5t34.5 -80.5q0 -47 -34.5 -80t-82.5 -33z"/>
<glyph glyph-name="twosuperior" horiz-adv-x="200" unicode="²" d="M101 189q-21 0 -37.5 16t-16.5 39t16 38.5t38 15.5t38 -15.5t16 -38.5t-16 -39t-38 -16z"/>
<glyph glyph-name="threesuperior" horiz-adv-x="200" unicode="³" d="M101 189q-21 0 -37.5 16t-16.5 39t16 38.5t38 15.5t38 -15.5t16 -38.5t-16 -39t-38 -16z"/>
<glyph glyph-name="acute" horiz-adv-x="500" unicode="´" d="M221 498l68 193h80l-93 -193h-55z"/>
<glyph glyph-name="mu" horiz-adv-x="200" unicode="µ" d="M101 189q-21 0 -37.5 16t-16.5 39t16 38.5t38 15.5t38 -15.5t16 -38.5t-16 -39t-38 -16z"/>
<glyph glyph-name="mu" horiz-adv-x="200" unicode="μ" d="M101 189q-21 0 -37.5 16t-16.5 39t16 38.5t38 15.5t38 -15.5t16 -38.5t-16 -39t-38 -16z"/>
<glyph glyph-name="paragraph" horiz-adv-x="625" unicode="¶" d="M249 365h63v253h-63q-56 0 -88.5 -34t-32.5 -92t32.5 -92.5t88.5 -34.5zM312 0v304h-64q-90 0 -143.5 53.5t-53.5 133.5t53.5 134.5t143.5 54.5h284v-680h-69v618h-80v-618h-71z"/>
<glyph glyph-name="cedilla" horiz-adv-x="500" unicode="¸" d="M256 -232q-72 0 -101 59l43 25q8 -13 13 -19.5t15.5 -12t25.5 -5.5q19 0 32 12t13 33t-13.5 34t-39.5 13h-22v93h48v-53q34 -5 58 -29t24 -62q0 -40 -28.5 -64t-67.5 -24z"/>
<glyph glyph-name="onesuperior" horiz-adv-x="200" unicode="¹" d="M101 189q-21 0 -37.5 16t-16.5 39t16 38.5t38 15.5t38 -15.5t16 -38.5t-16 -39t-38 -16z"/>
<glyph glyph-name="ordmasculine" horiz-adv-x="454" unicode="º" d="M227 201q53 0 86 36t33 92t-33 91.5t-86 35.5t-85.5 -35.5t-32.5 -91.5q0 -57 32.5 -92.5t85.5 -35.5zM227 146q-77 0 -131 52.5t-54 130.5q0 77 54 130t131 53t131 -53t54 -130q0 -78 -54 -130.5t-131 -52.5z"/>
<glyph glyph-name="guillemotright" horiz-adv-x="397" unicode="»" d="M38 37l96 162l-96 162h72l94 -158v-8l-94 -158h-72zM193 37l96 162l-96 162h72l94 -158v-8l-94 -158h-72z"/>
<glyph glyph-name="onequarter" horiz-adv-x="200" unicode="¼" d="M101 189q-21 0 -37.5 16t-16.5 39t16 38.5t38 15.5t38 -15.5t16 -38.5t-16 -39t-38 -16z"/>
<glyph glyph-name="onehalf" horiz-adv-x="200" unicode="½" d="M101 189q-21 0 -37.5 16t-16.5 39t16 38.5t38 15.5t38 -15.5t16 -38.5t-16 -39t-38 -16z"/>
<glyph glyph-name="threequarters" horiz-adv-x="200" unicode="¾" d="M101 189q-21 0 -37.5 16t-16.5 39t16 38.5t38 15.5t38 -15.5t16 -38.5t-16 -39t-38 -16z"/>
<glyph glyph-name="questiondown" horiz-adv-x="469" unicode="¿" d="M295 493v-176h-33q-65 0 -102.5 -38t-37.5 -96q0 -59 34.5 -93.5t90.5 -34.5q50 0 82 21t55 67l58 -30q-25 -59 -75.5 -90t-119.5 -31q-88 0 -142.5 52.5t-54.5 138.5q0 79 49.5 131t129.5 58v121h66zM263 687q21 0 37 -15.5t16 -37.5q0 -23 -16 -38.5t-37 -15.5 t-37 15.5t-16 38.5q0 22 16 37.5t37 15.5z"/>
<glyph glyph-name="Agrave" horiz-adv-x="656" unicode="À" d="M178 176h293l-120 302l-26 81q-14 -49 -27 -81zM37 0l282 687h12l288 -687h-76l-46 114h-344l-45 -114h-71zM299 753l-93 193h80l68 -193h-55z"/>
<glyph glyph-name="Aacute" horiz-adv-x="656" unicode="Á" d="M178 176h293l-120 302l-26 81q-14 -49 -27 -81zM37 0l282 687h12l288 -687h-76l-46 114h-344l-45 -114h-71zM299 753l68 193h80l-93 -193h-55z"/>
<glyph glyph-name="Acircumflex" horiz-adv-x="656" unicode="Â" d="M178 176h293l-120 302l-26 81q-14 -49 -27 -81zM37 0l282 687h12l288 -687h-76l-46 114h-344l-45 -114h-71zM192 751l128 193h9l128 -193h-61l-71 99l-72 -99h-61z"/>
<glyph glyph-name="Atilde" horiz-adv-x="656" unicode="Ã" d="M178 176h293l-120 302l-26 81q-14 -49 -27 -81zM37 0l282 687h12l288 -687h-76l-46 114h-344l-45 -114h-71zM231 748l-52 4q3 53 26.5 82t60.5 29q32 0 69 -32q20 -18 28.5 -23t19.5 -5q30 0 36 58l52 -5q-3 -53 -25.5 -81.5t-60.5 -28.5q-31 0 -69 33q-20 18 -28.5 23 t-19.5 5q-31 0 -37 -59z"/>
<glyph glyph-name="Adieresis" horiz-adv-x="656" unicode="Ä" d="M178 176h293l-120 302l-26 81q-14 -49 -27 -81zM37 0l282 687h12l288 -687h-76l-46 114h-344l-45 -114h-71zM240 771q-18 0 -32 13.5t-14 32.5t14 32.5t32 13.5q19 0 33 -13.5t14 -32.5t-14 -32.5t-33 -13.5zM414 771q-18 0 -32.5 14t-14.5 32q0 19 14.5 32.5t32.5 13.5 t32 -13.5t14 -32.5t-14 -32.5t-32 -13.5z"/>
<glyph glyph-name="Aring" horiz-adv-x="656" unicode="Å" d="M178 176h293l-120 302l-26 81q-14 -49 -27 -81zM327 772q23 0 37.5 15t14.5 40t-14.5 40t-37.5 15t-37.5 -15t-14.5 -40t14.5 -40t37.5 -15zM37 0l282 687h12l288 -687h-76l-46 114h-344l-45 -114h-71zM327 727q-44 0 -74.5 29.5t-30.5 70.5q0 42 30.5 71.5t74.5 29.5 t74.5 -29.5t30.5 -71.5q0 -41 -30.5 -70.5t-74.5 -29.5z"/>
<glyph glyph-name="AE" horiz-adv-x="953" unicode="Æ" d="M223 178h243v308l7 84q-20 -44 -41 -75zM27 0l454 680h399v-64h-341v-319h304v-63h-304v-170h355v-64h-428v114h-286l-76 -114h-77z"/>
<glyph glyph-name="Ccedilla" horiz-adv-x="726" unicode="Ç" d="M403 -8v-45q34 -5 58 -29t24 -62q0 -40 -28.5 -64t-67.5 -24q-71 0 -101 59l43 25q8 -13 13 -19.5t15.5 -12t25.5 -5.5q19 0 32 12t13 33t-13.5 34t-39.5 13h-22v88q-130 16 -215.5 111t-85.5 234q0 152 101 250t248 98q182 0 270 -132l-55 -40q-72 107 -215 107 q-119 0 -196.5 -80.5t-77.5 -202.5t77.5 -202.5t196.5 -80.5q145 0 224 114l56 -39q-46 -67 -118 -103.5t-162 -36.5z"/>
<glyph glyph-name="Egrave" horiz-adv-x="580" unicode="È" d="M93 0v680h414v-64h-342v-319h305v-63h-305v-170h356v-64h-428zM281 753l-93 193h80l68 -193h-55z"/>
<glyph glyph-name="Eacute" horiz-adv-x="580" unicode="É" d="M93 0v680h414v-64h-342v-319h305v-63h-305v-170h356v-64h-428zM269 753l68 193h80l-93 -193h-55z"/>
<glyph glyph-name="Ecircumflex" horiz-adv-x="580" unicode="Ê" d="M93 0v680h414v-64h-342v-319h305v-63h-305v-170h356v-64h-428zM172 751l128 193h9l128 -193h-61l-71 99l-72 -99h-61z"/>
<glyph glyph-name="Edieresis" horiz-adv-x="580" unicode="Ë" d="M93 0v680h414v-64h-342v-319h305v-63h-305v-170h356v-64h-428zM217 771q-18 0 -32 13.5t-14 32.5t14 32.5t32 13.5q19 0 33 -13.5t14 -32.5t-14 -32.5t-33 -13.5zM391 771q-18 0 -32.5 14t-14.5 32q0 19 14.5 32.5t32.5 13.5t32 -13.5t14 -32.5t-14 -32.5t-32 -13.5z"/>
<glyph glyph-name="Igrave" horiz-adv-x="265" unicode="Ì" d="M96 0v680h73v-680h-73zM103 753l-93 193h80l68 -193h-55z"/>
<glyph glyph-name="Iacute" horiz-adv-x="265" unicode="Í" d="M96 0v680h73v-680h-73zM106 753l68 193h80l-93 -193h-55z"/>
<glyph glyph-name="Icircumflex" horiz-adv-x="265" unicode="Î" d="M96 0v680h73v-680h-73zM-1 751l128 193h9l128 -193h-61l-71 99l-72 -99h-61z"/>
<glyph glyph-name="Idieresis" horiz-adv-x="265" unicode="Ï" d="M96 0v680h73v-680h-73zM45 771q-18 0 -32 13.5t-14 32.5t14 32.5t32 13.5q19 0 33 -13.5t14 -32.5t-14 -32.5t-33 -13.5zM219 771q-18 0 -32.5 14t-14.5 32q0 19 14.5 32.5t32.5 13.5t32 -13.5t14 -32.5t-14 -32.5t-32 -13.5z"/>
<glyph glyph-name="Eth" horiz-adv-x="680" unicode="Ð" d="M165 65h96q141 0 215 74.5t74 200.5t-74 200.5t-215 74.5h-96v-310h183v-63h-183v-177zM93 0v242h-79v63h79v375h173q164 0 262 -94t98 -246t-97.5 -246t-262.5 -94h-173z"/>
<glyph glyph-name="Ntilde" horiz-adv-x="713" unicode="Ñ" d="M608 -7l-406 480l-47 63q6 -48 6 -77v-459h-68v687h12l406 -480l47 -63q-5 48 -5 77v459h67v-687h-12zM262 748l-52 4q3 53 26.5 82t60.5 29q32 0 69 -32q20 -18 28.5 -23t19.5 -5q30 0 36 58l52 -5q-3 -53 -25.5 -81.5t-60.5 -28.5q-31 0 -69 33q-20 18 -28.5 23 t-19.5 5q-31 0 -37 -59z"/>
<glyph glyph-name="Ograve" horiz-adv-x="807" unicode="Ò" d="M403 57q119 0 197 80.5t78 202.5t-78 202.5t-197 80.5q-118 0 -196 -80.5t-78 -202.5t78 -202.5t196 -80.5zM403 -8q-147 0 -248 98t-101 250t101 250t248 98q148 0 249 -98t101 -250t-101 -250t-249 -98zM377 753l-93 193h80l68 -193h-55z"/>
<glyph glyph-name="Oacute" horiz-adv-x="807" unicode="Ó" d="M403 57q119 0 197 80.5t78 202.5t-78 202.5t-197 80.5q-118 0 -196 -80.5t-78 -202.5t78 -202.5t196 -80.5zM403 -8q-147 0 -248 98t-101 250t101 250t248 98q148 0 249 -98t101 -250t-101 -250t-249 -98zM374 753l68 193h80l-93 -193h-55z"/>
<glyph glyph-name="Ocircumflex" horiz-adv-x="807" unicode="Ô" d="M403 57q119 0 197 80.5t78 202.5t-78 202.5t-197 80.5q-118 0 -196 -80.5t-78 -202.5t78 -202.5t196 -80.5zM403 -8q-147 0 -248 98t-101 250t101 250t248 98q148 0 249 -98t101 -250t-101 -250t-249 -98zM270 751l128 193h9l128 -193h-61l-71 99l-72 -99h-61z"/>
<glyph glyph-name="Otilde" horiz-adv-x="807" unicode="Õ" d="M403 57q119 0 197 80.5t78 202.5t-78 202.5t-197 80.5q-118 0 -196 -80.5t-78 -202.5t78 -202.5t196 -80.5zM403 -8q-147 0 -248 98t-101 250t101 250t248 98q148 0 249 -98t101 -250t-101 -250t-249 -98zM309 748l-52 4q3 53 26.5 82t60.5 29q32 0 69 -32 q20 -18 28.5 -23t19.5 -5q30 0 36 58l52 -5q-3 -53 -25.5 -81.5t-60.5 -28.5q-31 0 -69 33q-20 18 -28.5 23t-19.5 5q-31 0 -37 -59z"/>
<glyph glyph-name="Odieresis" horiz-adv-x="807" unicode="Ö" d="M403 57q119 0 197 80.5t78 202.5t-78 202.5t-197 80.5q-118 0 -196 -80.5t-78 -202.5t78 -202.5t196 -80.5zM403 -8q-147 0 -248 98t-101 250t101 250t248 98q148 0 249 -98t101 -250t-101 -250t-249 -98zM316 771q-18 0 -32 13.5t-14 32.5t14 32.5t32 13.5 q19 0 33 -13.5t14 -32.5t-14 -32.5t-33 -13.5zM490 771q-18 0 -32.5 14t-14.5 32q0 19 14.5 32.5t32.5 13.5t32 -13.5t14 -32.5t-14 -32.5t-32 -13.5z"/>
<glyph glyph-name="multiply" d="M261 207l-122 -121l-44 44l121 121l-121 121l44 44l121 -121l122 121l44 -44l-122 -121l122 -121l-44 -44z" unicode="×"/>
<glyph glyph-name="Oslash" horiz-adv-x="807" unicode="Ø" d="M623 515l-396 -396q75 -62 176 -62q119 0 197 80.5t78 202.5q0 100 -55 175zM184 165l396 395q-72 63 -177 63q-118 0 -196 -80.5t-78 -202.5q0 -100 55 -175zM674 566q79 -95 79 -226q0 -152 -101 -250t-249 -98q-131 0 -226 78l-80 -80l-45 44l81 80q-79 95 -79 226 q0 152 101 250t248 98q131 0 227 -79l80 80l44 -44z"/>
<glyph glyph-name="Ugrave" horiz-adv-x="662" unicode="Ù" d="M331 -8q-108 0 -176 62.5t-68 177.5v448h72v-443q0 -89 45.5 -135t126.5 -46t126.5 46t45.5 135v443h72v-448q0 -115 -68 -177.5t-176 -62.5zM305 753l-93 193h80l68 -193h-55z"/>
<glyph glyph-name="Uacute" horiz-adv-x="662" unicode="Ú" d="M331 -8q-108 0 -176 62.5t-68 177.5v448h72v-443q0 -89 45.5 -135t126.5 -46t126.5 46t45.5 135v443h72v-448q0 -115 -68 -177.5t-176 -62.5zM302 753l68 193h80l-93 -193h-55z"/>
<glyph glyph-name="Ucircumflex" horiz-adv-x="662" unicode="Û" d="M331 -8q-108 0 -176 62.5t-68 177.5v448h72v-443q0 -89 45.5 -135t126.5 -46t126.5 46t45.5 135v443h72v-448q0 -115 -68 -177.5t-176 -62.5zM198 751l128 193h9l128 -193h-61l-71 99l-72 -99h-61z"/>
<glyph glyph-name="Udieresis" horiz-adv-x="662" unicode="Ü" d="M331 -8q-108 0 -176 62.5t-68 177.5v448h72v-443q0 -89 45.5 -135t126.5 -46t126.5 46t45.5 135v443h72v-448q0 -115 -68 -177.5t-176 -62.5zM244 771q-18 0 -32 13.5t-14 32.5t14 32.5t32 13.5q19 0 33 -13.5t14 -32.5t-14 -32.5t-33 -13.5zM418 771q-18 0 -32.5 14 t-14.5 32q0 19 14.5 32.5t32.5 13.5t32 -13.5t14 -32.5t-14 -32.5t-32 -13.5z"/>
<glyph glyph-name="Yacute" horiz-adv-x="656" unicode="Ý" d="M294 0v213l-257 467h81l185 -338q7 -12 14 -29t11 -29l4 -11q15 42 29 69l184 338h75l-252 -464v-216h-74zM299 753l68 193h80l-93 -193h-55z"/>
<glyph glyph-name="Thorn" horiz-adv-x="584" unicode="Þ" d="M165 153h84q204 0 204 192t-204 192h-84v-384zM93 0v680h72v-79h88q132 0 203.5 -70.5t71.5 -185.5q0 -116 -71 -186t-204 -70h-88v-89h-72z"/>
<glyph glyph-name="germandbls" horiz-adv-x="540" unicode="ß" d="M283 -5q-44 0 -76 13l15 57q21 -9 54 -9q70 0 107 41.5t37 112.5q0 73 -45.5 115t-128.5 42h-6v58q55 6 86 41t31 92q0 59 -29.5 88.5t-75.5 29.5q-48 0 -78 -31.5t-30 -99.5v-545h-70v546q0 93 51 141t127 48q74 0 122.5 -46t48.5 -129q0 -113 -96 -154 q75 -15 120 -66.5t45 -130.5q0 -95 -55.5 -154.5t-153.5 -59.5z"/>
<glyph glyph-name="agrave" horiz-adv-x="471" unicode="à" d="M331 190h-124q-94 0 -94 -69q0 -72 100 -72q49 0 83.5 24.5t34.5 64.5v52zM331 243v10q0 111 -97 111q-76 0 -121 -60l-43 39q59 80 169 80q72 0 117 -43t45 -126v-254h-70l3 62q-47 -70 -137 -70q-69 0 -110.5 32t-41.5 94q0 61 44 93t113 32h129zM213 498l-93 193h80 l68 -193h-55z"/>
<glyph glyph-name="aacute" horiz-adv-x="471" unicode="á" d="M331 190h-124q-94 0 -94 -69q0 -72 100 -72q49 0 83.5 24.5t34.5 64.5v52zM331 243v10q0 111 -97 111q-76 0 -121 -60l-43 39q59 80 169 80q72 0 117 -43t45 -126v-254h-70l3 62q-47 -70 -137 -70q-69 0 -110.5 32t-41.5 94q0 61 44 93t113 32h129zM203 498l68 193h80 l-93 -193h-55z"/>
<glyph glyph-name="acircumflex" horiz-adv-x="471" unicode="â" d="M331 190h-124q-94 0 -94 -69q0 -72 100 -72q49 0 83.5 24.5t34.5 64.5v52zM331 243v10q0 111 -97 111q-76 0 -121 -60l-43 39q59 80 169 80q72 0 117 -43t45 -126v-254h-70l3 62q-47 -70 -137 -70q-69 0 -110.5 32t-41.5 94q0 61 44 93t113 32h129zM104 496l128 193h9 l128 -193h-61l-71 99l-72 -99h-61z"/>
<glyph glyph-name="atilde" horiz-adv-x="471" unicode="ã" d="M331 190h-124q-94 0 -94 -69q0 -72 100 -72q49 0 83.5 24.5t34.5 64.5v52zM331 243v10q0 111 -97 111q-76 0 -121 -60l-43 39q59 80 169 80q72 0 117 -43t45 -126v-254h-70l3 62q-47 -70 -137 -70q-69 0 -110.5 32t-41.5 94q0 61 44 93t113 32h129zM137 493l-52 4 q3 53 26.5 82t60.5 29q32 0 69 -32q20 -18 28.5 -23t19.5 -5q30 0 36 58l52 -5q-3 -53 -25.5 -81.5t-60.5 -28.5q-31 0 -69 33q-20 18 -28.5 23t-19.5 5q-31 0 -37 -59z"/>
<glyph glyph-name="adieresis" horiz-adv-x="471" unicode="ä" d="M331 190h-124q-94 0 -94 -69q0 -72 100 -72q49 0 83.5 24.5t34.5 64.5v52zM331 243v10q0 111 -97 111q-76 0 -121 -60l-43 39q59 80 169 80q72 0 117 -43t45 -126v-254h-70l3 62q-47 -70 -137 -70q-69 0 -110.5 32t-41.5 94q0 61 44 93t113 32h129zM150 516 q-18 0 -32 13.5t-14 32.5t14 32.5t32 13.5q19 0 33 -13.5t14 -32.5t-14 -32.5t-33 -13.5zM324 516q-18 0 -32.5 14t-14.5 32q0 19 14.5 32.5t32.5 13.5t32 -13.5t14 -32.5t-14 -32.5t-32 -13.5z"/>
<glyph glyph-name="aring" horiz-adv-x="471" unicode="å" d="M331 190h-124q-94 0 -94 -69q0 -72 100 -72q49 0 83.5 24.5t34.5 64.5v52zM235 529q23 0 37.5 15t14.5 40t-14.5 40t-37.5 15t-37.5 -15t-14.5 -40t14.5 -40t37.5 -15zM331 243v10q0 111 -97 111q-76 0 -121 -60l-43 39q59 80 169 80q72 0 117 -43t45 -126v-254h-70l3 62 q-47 -70 -137 -70q-69 0 -110.5 32t-41.5 94q0 61 44 93t113 32h129zM235 484q-44 0 -74.5 29.5t-30.5 70.5q0 42 30.5 71.5t74.5 29.5t74.5 -29.5t30.5 -71.5q0 -41 -30.5 -70.5t-74.5 -29.5z"/>
<glyph glyph-name="ae" horiz-adv-x="799" unicode="æ" d="M331 188h-124q-94 0 -94 -68q0 -71 100 -71q49 0 83.5 24.5t34.5 64.5v50zM402 240h280q-5 53 -40 88.5t-97 35.5q-57 0 -95.5 -34.5t-47.5 -89.5zM331 240v12q0 112 -97 112q-76 0 -121 -60l-43 39q59 80 169 80q104 0 137 -94q27 42 71 68t97 26q96 0 152.5 -63.5 t56.5 -161.5v-10h-353q6 -61 46.5 -99t107.5 -38q81 0 132 55l42 -42q-64 -72 -173 -72q-126 0 -182 97q-16 -47 -62.5 -72t-104.5 -25q-73 0 -117 31.5t-44 93.5q0 61 44 92t113 31h129z"/>
<glyph glyph-name="ccedilla" horiz-adv-x="467" unicode="ç" d="M217 -3q-75 15 -122 73.5t-47 136.5q0 91 62 153.5t153 62.5q102 0 163 -74l-50 -41q-40 53 -113 53q-65 0 -104 -43.5t-39 -110.5t39 -110.5t104 -43.5q74 0 119 54l48 -41q-61 -74 -165 -74v-45q34 -5 58 -29t24 -62q0 -40 -28.5 -64t-67.5 -24q-71 0 -101 59l43 25 q8 -13 13 -19.5t15.5 -12t25.5 -5.5q19 0 32 12t13 33t-13.5 34t-39.5 13h-22v90z"/>
<glyph glyph-name="egrave" horiz-adv-x="516" unicode="è" d="M119 237h281q-5 56 -40.5 91.5t-97.5 35.5q-58 0 -96.5 -34.5t-46.5 -92.5zM118 184q7 -61 47 -97t107 -36q82 0 131 55l43 -42q-64 -72 -174 -72q-100 0 -162 61.5t-62 153.5q0 91 61.5 153.5t152.5 62.5q95 0 151.5 -63.5t56.5 -163.5v-12h-352zM235 498l-93 193h80 l68 -193h-55z"/>
<glyph glyph-name="eacute" horiz-adv-x="516" unicode="é" d="M119 237h281q-5 56 -40.5 91.5t-97.5 35.5q-58 0 -96.5 -34.5t-46.5 -92.5zM118 184q7 -61 47 -97t107 -36q82 0 131 55l43 -42q-64 -72 -174 -72q-100 0 -162 61.5t-62 153.5q0 91 61.5 153.5t152.5 62.5q95 0 151.5 -63.5t56.5 -163.5v-12h-352zM229 498l68 193h80 l-93 -193h-55z"/>
<glyph glyph-name="ecircumflex" horiz-adv-x="516" unicode="ê" d="M119 237h281q-5 56 -40.5 91.5t-97.5 35.5q-58 0 -96.5 -34.5t-46.5 -92.5zM118 184q7 -61 47 -97t107 -36q82 0 131 55l43 -42q-64 -72 -174 -72q-100 0 -162 61.5t-62 153.5q0 91 61.5 153.5t152.5 62.5q95 0 151.5 -63.5t56.5 -163.5v-12h-352zM125 496l128 193h9 l128 -193h-61l-71 99l-72 -99h-61z"/>
<glyph glyph-name="edieresis" horiz-adv-x="516" unicode="ë" d="M119 237h281q-5 56 -40.5 91.5t-97.5 35.5q-58 0 -96.5 -34.5t-46.5 -92.5zM118 184q7 -61 47 -97t107 -36q82 0 131 55l43 -42q-64 -72 -174 -72q-100 0 -162 61.5t-62 153.5q0 91 61.5 153.5t152.5 62.5q95 0 151.5 -63.5t56.5 -163.5v-12h-352zM171 516 q-18 0 -32 13.5t-14 32.5t14 32.5t32 13.5q19 0 33 -13.5t14 -32.5t-14 -32.5t-33 -13.5zM345 516q-18 0 -32.5 14t-14.5 32q0 19 14.5 32.5t32.5 13.5t32 -13.5t14 -32.5t-14 -32.5t-32 -13.5z"/>
<glyph glyph-name="igrave" horiz-adv-x="222" unicode="ì" d="M76 0v414h70v-414h-70zM83 498l-93 193h80l68 -193h-55z"/>
<glyph glyph-name="iacute" horiz-adv-x="222" unicode="í" d="M76 0v414h70v-414h-70zM81 498l68 193h80l-93 -193h-55z"/>
<glyph glyph-name="icircumflex" horiz-adv-x="222" unicode="î" d="M76 0v414h70v-414h-70zM-22 496l128 193h9l128 -193h-61l-71 99l-72 -99h-61z"/>
<glyph glyph-name="idieresis" horiz-adv-x="222" unicode="ï" d="M76 0v414h70v-414h-70zM24 516q-18 0 -32 13.5t-14 32.5t14 32.5t32 13.5q19 0 33 -13.5t14 -32.5t-14 -32.5t-33 -13.5zM198 516q-18 0 -32.5 14t-14.5 32q0 19 14.5 32.5t32.5 13.5t32 -13.5t14 -32.5t-14 -32.5t-32 -13.5z"/>
<glyph glyph-name="eth" horiz-adv-x="534" unicode="ð" d="M268 52q65 0 106 45t41 114q0 66 -41 108.5t-106 42.5q-66 0 -107.5 -44t-41.5 -111t41.5 -111t107.5 -44zM276 575l-67 -65l-35 35l70 68q-40 46 -84 82l39 43q44 -35 89 -81l67 66l37 -36l-70 -67q164 -191 164 -402q0 -97 -62.5 -161.5t-155.5 -64.5t-156.5 62 t-63.5 153t62.5 153.5t149.5 62.5q86 0 135 -65q-29 109 -119 217z"/>
<glyph glyph-name="ntilde" horiz-adv-x="516" unicode="ñ" d="M74 0v414h70l-2 -85q20 44 59.5 69t89.5 25q70 0 112.5 -45.5t42.5 -125.5v-252h-70v244q0 115 -103 115q-58 0 -93.5 -35t-35.5 -96v-228h-70zM161 493l-52 4q3 53 26.5 82t60.5 29q32 0 69 -32q20 -18 28.5 -23t19.5 -5q30 0 36 58l52 -5q-3 -53 -25.5 -81.5 t-60.5 -28.5q-31 0 -69 33q-20 18 -28.5 23t-19.5 5q-31 0 -37 -59z"/>
<glyph glyph-name="ograve" horiz-adv-x="534" unicode="ò" d="M268 52q65 0 106 44t41 111t-41 111t-106 44q-66 0 -107.5 -44t-41.5 -111t41.5 -111t107.5 -44zM268 -8q-93 0 -156.5 62t-63.5 153t63.5 153.5t156.5 62.5q92 0 155 -62.5t63 -153.5t-63 -153t-155 -62zM240 498l-93 193h80l68 -193h-55z"/>
<glyph glyph-name="oacute" horiz-adv-x="534" unicode="ó" d="M268 52q65 0 106 44t41 111t-41 111t-106 44q-66 0 -107.5 -44t-41.5 -111t41.5 -111t107.5 -44zM268 -8q-93 0 -156.5 62t-63.5 153t63.5 153.5t156.5 62.5q92 0 155 -62.5t63 -153.5t-63 -153t-155 -62zM239 498l68 193h80l-93 -193h-55z"/>
<glyph glyph-name="ocircumflex" horiz-adv-x="534" unicode="ô" d="M268 52q65 0 106 44t41 111t-41 111t-106 44q-66 0 -107.5 -44t-41.5 -111t41.5 -111t107.5 -44zM268 -8q-93 0 -156.5 62t-63.5 153t63.5 153.5t156.5 62.5q92 0 155 -62.5t63 -153.5t-63 -153t-155 -62zM134 496l128 193h9l128 -193h-61l-71 99l-72 -99h-61z"/>
<glyph glyph-name="otilde" horiz-adv-x="534" unicode="õ" d="M268 52q65 0 106 44t41 111t-41 111t-106 44q-66 0 -107.5 -44t-41.5 -111t41.5 -111t107.5 -44zM268 -8q-93 0 -156.5 62t-63.5 153t63.5 153.5t156.5 62.5q92 0 155 -62.5t63 -153.5t-63 -153t-155 -62zM173 493l-52 4q3 53 26.5 82t60.5 29q32 0 69 -32 q20 -18 28.5 -23t19.5 -5q30 0 36 58l52 -5q-3 -53 -25.5 -81.5t-60.5 -28.5q-31 0 -69 33q-20 18 -28.5 23t-19.5 5q-31 0 -37 -59z"/>
<glyph glyph-name="odieresis" horiz-adv-x="534" unicode="ö" d="M268 52q65 0 106 44t41 111t-41 111t-106 44q-66 0 -107.5 -44t-41.5 -111t41.5 -111t107.5 -44zM268 -8q-93 0 -156.5 62t-63.5 153t63.5 153.5t156.5 62.5q92 0 155 -62.5t63 -153.5t-63 -153t-155 -62zM180 516q-18 0 -32 13.5t-14 32.5t14 32.5t32 13.5 q19 0 33 -13.5t14 -32.5t-14 -32.5t-33 -13.5zM354 516q-18 0 -32.5 14t-14.5 32q0 19 14.5 32.5t32.5 13.5t32 -13.5t14 -32.5t-14 -32.5t-32 -13.5z"/>
<glyph glyph-name="divide" d="M259 44q-21 0 -36 15t-15 36q0 22 15 37t36 15t36.5 -15t15.5 -37q0 -21 -15.5 -36t-36.5 -15zM85 221v62h349v-62h-349zM259 357q-21 0 -36 15t-15 36q0 22 15 37t36 15t36.5 -15t15.5 -37q0 -21 -15.5 -36t-36.5 -15z" unicode="÷"/>
<glyph glyph-name="oslash" horiz-adv-x="534" unicode="ø" d="M396 291l-225 -207q41 -33 97 -33q66 0 107.5 44t41.5 112q0 49 -21 84zM138 122l225 208q-39 33 -95 33q-67 0 -109 -44t-42 -112q0 -45 21 -85zM444 336q42 -58 42 -129q0 -91 -63 -153t-155 -62q-81 0 -142 50l-58 -54l-35 37l58 53q-43 57 -43 129q0 91 63.5 153.5 t156.5 62.5q80 0 140 -50l57 52l35 -37z"/>
<glyph glyph-name="ugrave" horiz-adv-x="515" unicode="ù" d="M225 -9q-70 0 -112.5 45.5t-42.5 123.5v254h70v-247q0 -112 102 -112q59 0 94 35.5t35 95.5v228h70v-414h-70l2 84q-20 -44 -59 -68.5t-89 -24.5zM231 498l-93 193h80l68 -193h-55z"/>
<glyph glyph-name="uacute" horiz-adv-x="515" unicode="ú" d="M225 -9q-70 0 -112.5 45.5t-42.5 123.5v254h70v-247q0 -112 102 -112q59 0 94 35.5t35 95.5v228h70v-414h-70l2 84q-20 -44 -59 -68.5t-89 -24.5zM228 498l68 193h80l-93 -193h-55z"/>
<glyph glyph-name="ucircumflex" horiz-adv-x="515" unicode="û" d="M225 -9q-70 0 -112.5 45.5t-42.5 123.5v254h70v-247q0 -112 102 -112q59 0 94 35.5t35 95.5v228h70v-414h-70l2 84q-20 -44 -59 -68.5t-89 -24.5zM124 496l128 193h9l128 -193h-61l-71 99l-72 -99h-61z"/>
<glyph glyph-name="udieresis" horiz-adv-x="515" unicode="ü" d="M225 -9q-70 0 -112.5 45.5t-42.5 123.5v254h70v-247q0 -112 102 -112q59 0 94 35.5t35 95.5v228h70v-414h-70l2 84q-20 -44 -59 -68.5t-89 -24.5zM170 516q-18 0 -32 13.5t-14 32.5t14 32.5t32 13.5q19 0 33 -13.5t14 -32.5t-14 -32.5t-33 -13.5zM344 516q-18 0 -32.5 14 t-14.5 32q0 19 14.5 32.5t32.5 13.5t32 -13.5t14 -32.5t-14 -32.5t-32 -13.5z"/>
<glyph glyph-name="yacute" horiz-adv-x="462" unicode="ý" d="M95 -212l106 247l-176 379h77l117 -257q5 -12 9.5 -29.5t7.5 -29.5l2 -11q7 44 19 70l108 257h72l-270 -626h-72zM205 498l68 193h80l-93 -193h-55z"/>
<glyph glyph-name="thorn" horiz-adv-x="552" unicode="þ" d="M289 53q65 0 104 43.5t39 111.5q0 67 -39 110t-104 43q-66 0 -106.5 -43t-40.5 -110q0 -68 40.5 -111.5t106.5 -43.5zM76 -212v934h70v-393q50 94 160 94q85 0 141.5 -61.5t56.5 -153.5q0 -93 -57 -154.5t-142 -61.5q-54 0 -96 26t-63 68v-298h-70z"/>
<glyph glyph-name="OE" horiz-adv-x="987" unicode="Œ" d="M418 65h83v550h-83q-141 0 -215 -74.5t-74 -200.5t74 -200.5t215 -74.5zM412 0q-164 0 -261 94t-97 246q0 153 96.5 246.5t261.5 93.5h502v-64h-341v-319h304v-63h-304v-170h355v-64h-516z"/>
<glyph glyph-name="oe" horiz-adv-x="881" unicode="œ" d="M268 52q65 0 106 44t41 111t-41 111t-106 44q-66 0 -107.5 -44t-41.5 -111t41.5 -111t107.5 -44zM483 237h281q-5 56 -40.5 91.5t-97.5 35.5q-58 0 -96.5 -34.5t-46.5 -92.5zM482 184q7 -61 47 -97t107 -36q82 0 131 55l43 -42q-64 -72 -173 -72q-68 0 -116.5 31 t-71.5 84q-23 -52 -71 -83.5t-110 -31.5q-93 0 -156.5 62t-63.5 153t63.5 153.5t156.5 62.5q63 0 110.5 -31.5t70.5 -84.5q22 53 69 84.5t108 31.5q95 0 151.5 -63.5t56.5 -163.5v-12h-352z"/>
<glyph glyph-name="Scaron" horiz-adv-x="531" unicode="Š" d="M266 -8q-168 0 -237 138l60 32q28 -49 68.5 -77.5t106.5 -28.5q61 0 101 31.5t40 84.5q0 49 -30 80.5t-98 61.5l-54 25q-78 35 -114 76.5t-36 109.5q0 73 50.5 118t128.5 45q123 0 184 -102l-58 -36q-46 74 -126 74q-50 0 -79 -26.5t-29 -70.5q0 -43 24 -68.5t84 -53.5 l54 -25q89 -39 130 -86.5t41 -121.5q0 -83 -59 -131.5t-152 -48.5zM246 743l-128 193h61l71 -99l72 99h61l-128 -193h-9z"/>
<glyph glyph-name="scaron" horiz-adv-x="410" unicode="š" d="M213 -8q-64 0 -109.5 27t-67.5 69l54 31q42 -70 120 -70q42 0 65 16.5t23 45.5q0 31 -22.5 44.5t-85.5 31.5q-60 17 -92.5 43.5t-32.5 79.5q0 52 38.5 82.5t97.5 30.5q91 0 138 -67l-48 -37q-34 47 -90 47q-33 0 -52.5 -14.5t-19.5 -38.5q0 -28 20 -41t78 -30 q64 -17 100.5 -45t36.5 -82q0 -55 -38 -89t-113 -34zM193 488l-128 193h61l71 -99l72 99h61l-128 -193h-9z"/>
<glyph glyph-name="Ydieresis" horiz-adv-x="656" unicode="Ÿ" d="M294 0v213l-257 467h81l185 -338q7 -12 14 -29t11 -29l4 -11q15 42 29 69l184 338h75l-252 -464v-216h-74zM240 771q-18 0 -32 13.5t-14 32.5t14 32.5t32 13.5q19 0 33 -13.5t14 -32.5t-14 -32.5t-33 -13.5zM414 771q-18 0 -32.5 14t-14.5 32q0 19 14.5 32.5t32.5 13.5 t32 -13.5t14 -32.5t-14 -32.5t-32 -13.5z"/>
<glyph glyph-name="circumflex" horiz-adv-x="500" unicode="ˆ" d="M117 496l128 193h9l128 -193h-61l-71 99l-72 -99h-61z"/>
<glyph glyph-name="tilde" horiz-adv-x="500" unicode="˜" d="M156 493l-52 4q3 53 26.5 82t60.5 29q32 0 69 -32q20 -18 28.5 -23t19.5 -5q30 0 36 58l52 -5q-3 -53 -25.5 -81.5t-60.5 -28.5q-31 0 -69 33q-20 18 -28.5 23t-19.5 5q-31 0 -37 -59z"/>
<glyph glyph-name="pi" horiz-adv-x="200" unicode="π" d="M101 189q-21 0 -37.5 16t-16.5 39t16 38.5t38 15.5t38 -15.5t16 -38.5t-16 -39t-38 -16z"/>
<glyph glyph-name="endash" horiz-adv-x="394" unicode="–" d="M35 163v61h323v-61h-323z"/>
<glyph glyph-name="emdash" horiz-adv-x="623" unicode="—" d="M35 163v61h553v-61h-553z"/>
<glyph glyph-name="quoteleft" horiz-adv-x="199" unicode="‘" d="M100 475q-21 0 -37 15.5t-16 36.5q0 17 13 41l55 112h38l-34 -104q13 -5 23 -18t10 -30q0 -22 -15.5 -37.5t-36.5 -15.5z"/>
<glyph glyph-name="quotesinglbase" horiz-adv-x="199" unicode="‚" d="M46 -103l34 105q-14 4 -23.5 17t-9.5 31q0 21 15.5 36.5t36.5 15.5t37 -15.5t16 -36.5q0 -14 -13 -40l-56 -113h-37z"/>
<glyph glyph-name="quotedblleft" horiz-adv-x="357" unicode="“" d="M100 475q-21 0 -37 15.5t-16 36.5q0 17 13 41l55 112h38l-34 -104q13 -5 23 -18t10 -30q0 -22 -15.5 -37.5t-36.5 -15.5zM258 475q-21 0 -37 15.5t-16 36.5q0 13 13 41l56 112h37l-34 -104q14 -5 23.5 -18t9.5 -30q0 -22 -15.5 -37.5t-36.5 -15.5z"/>
<glyph glyph-name="quotedblright" horiz-adv-x="357" unicode="”" d="M46 482l34 104q-14 5 -23.5 18t-9.5 30q0 22 15.5 37.5t36.5 15.5t37 -15.5t16 -36.5q0 -13 -13 -41l-56 -112h-37zM204 482l34 104q-13 5 -23 18t-10 30q0 22 15.5 37.5t36.5 15.5t37 -15.5t16 -36.5q0 -17 -13 -41l-55 -112h-38z"/>
<glyph glyph-name="dagger" horiz-adv-x="337" unicode="†" d="M136 280v238h-93v58h93v104h65v-104h93v-58h-93v-238h-65z"/>
<glyph glyph-name="daggerdbl" horiz-adv-x="337" unicode="‡" d="M136 280v105h-93v54h93v82h-93v55h93v104h65v-104h93v-55h-93v-82h93v-54h-93v-105h-65z"/>
<glyph glyph-name="ellipsis" horiz-adv-x="616" unicode="…" d="M101 -7q-21 0 -37.5 16t-16.5 39t16 38.5t38 15.5t38 -15.5t16 -38.5t-16 -39t-38 -16zM308 -7q-21 0 -37.5 16t-16.5 39t16 38.5t38 15.5t38 -15.5t16 -38.5t-16 -39t-38 -16zM515 -7q-21 0 -37.5 16t-16.5 39t16 38.5t38 15.5t38 -15.5t16 -38.5t-16 -39t-38 -16z"/>
<glyph glyph-name="perthousand" horiz-adv-x="1100" unicode="‰" d="M583 45q36 0 60 26t24 67q0 42 -24 67.5t-60 25.5t-60 -25.5t-24 -67.5q0 -41 24 -67t60 -26zM915 45q36 0 60 26t24 67q0 42 -24 67.5t-60 25.5t-60 -25.5t-24 -67.5q0 -41 24 -67t60 -26zM185 272q37 0 61 26t24 67t-24 67t-61 26q-36 0 -60.5 -26t-24.5 -67t24.5 -67 t60.5 -26zM583 -8q-59 0 -101 41.5t-42 104.5t42 105t101 42t101 -42t42 -105t-42 -104.5t-101 -41.5zM915 -8q-59 0 -101 41.5t-42 104.5t42 105t101 42t101 -42t42 -105t-42 -104.5t-101 -41.5zM191 0l315 504h70l-315 -504h-70zM185 218q-59 0 -101.5 42t-42.5 105 t42.5 105t101.5 42t101 -42t42 -105t-42 -105t-101 -42z"/>
<glyph glyph-name="guilsinglleft" horiz-adv-x="242" unicode="‹" d="M132 37l-94 159v8l94 157h72l-96 -161l96 -163h-72z"/>
<glyph glyph-name="guilsinglright" horiz-adv-x="242" unicode="›" d="M38 37l96 162l-96 162h72l94 -158v-8l-94 -158h-72z"/>
<glyph glyph-name="Euro" d="M80 283h-61v56h72q23 78 82.5 125.5t136.5 47.5q123 0 187 -97l-52 -37q-25 39 -55 56t-80 17t-88.5 -30t-57.5 -82h192v-56h-204q0 -5 -0.5 -15t-0.5 -16q0 -12 2 -32h203v-56h-191q18 -52 56.5 -81.5t88.5 -29.5q52 0 82.5 19.5t54.5 58.5l55 -34q-63 -105 -192 -105 q-75 0 -134.5 47t-83.5 125h-73v56h62q-2 20 -2 32q0 21 1 31z" unicode="€"/>
<glyph glyph-name="trademark" horiz-adv-x="725" unicode="™" d="M138 383v251h-90v46h234v-46h-90v-251h-54zM346 383v302h9l144 -161l143 161h9v-302h-54v187l-93 -111h-10l-94 111v-187h-54z"/>
<glyph glyph-name="partialdiff" horiz-adv-x="200" unicode="∂" d="M101 189q-21 0 -37.5 16t-16.5 39t16 38.5t38 15.5t38 -15.5t16 -38.5t-16 -39t-38 -16z"/>
<glyph glyph-name="product" horiz-adv-x="200" unicode="∏" d="M101 189q-21 0 -37.5 16t-16.5 39t16 38.5t38 15.5t38 -15.5t16 -38.5t-16 -39t-38 -16z"/>
<glyph glyph-name="summation" horiz-adv-x="806" unicode="∑" d="M402 59q119 0 197 80t78 201q0 122 -78 202.5t-197 80.5q-118 0 -196 -80.5t-78 -202.5q0 -121 78 -201t196 -80zM440 1q28 -22 44 -33.5t43.5 -22t57.5 -10.5q59 0 100 45l49 -44q-56 -66 -148 -66q-39 0 -78.5 15.5t-59.5 29.5t-56 42q-28 21 -46 32.5t-46 22.5t-55 11 q-74 0 -121 -73l-49 40q39 61 107 81q-61 45 -95 114.5t-34 154.5q0 152 101 250t248 98q148 0 249 -98t101 -250q0 -140 -89 -233.5t-223 -105.5z"/>
<glyph glyph-name="minus" d="M86 221v62h348v-62h-348z" unicode="−"/>
<glyph glyph-name="radical" horiz-adv-x="200" unicode="√" d="M101 189q-21 0 -37.5 16t-16.5 39t16 38.5t38 15.5t38 -15.5t16 -38.5t-16 -39t-38 -16z"/>
<glyph glyph-name="approxequal" horiz-adv-x="200" unicode="≈" d="M101 189q-21 0 -37.5 16t-16.5 39t16 38.5t38 15.5t38 -15.5t16 -38.5t-16 -39t-38 -16z"/>
<glyph glyph-name="lessequal" horiz-adv-x="200" unicode="≤" d="M101 189q-21 0 -37.5 16t-16.5 39t16 38.5t38 15.5t38 -15.5t16 -38.5t-16 -39t-38 -16z"/>
<glyph glyph-name="greaterequal" horiz-adv-x="200" unicode="≥" d="M101 189q-21 0 -37.5 16t-16.5 39t16 38.5t38 15.5t38 -15.5t16 -38.5t-16 -39t-38 -16z"/>
<glyph glyph-name="lozenge" horiz-adv-x="200" unicode="◊" d="M101 189q-21 0 -37.5 16t-16.5 39t16 38.5t38 15.5t38 -15.5t16 -38.5t-16 -39t-38 -16z"/>
</font>
</defs>
</svg>
