<?xml version="1.0" encoding="UTF-8" standalone="no"?>
<!DOCTYPE svg  PUBLIC '-//W3C//DTD SVG 1.1//EN'  'http://www.w3.org/Graphics/SVG/1.1/DTD/svg11.dtd'>
<svg xmlns="http://www.w3.org/2000/svg">
<defs>
<font id="NeutraText-Light" horiz-adv-x="180">
<font-face underline-position="-123" font-weight="300" descent="-200" panose-1="2 0 0 0 0 0 0 0 0 0" units-per-em="1000" unicode-range="U+0020-25CA" bbox="-50 -228 1027 950" x-height="408" underline-thickness="20" font-family="NeutraText" ascent="800" cap-height="680"/>
<missing-glyph horiz-adv-x="1000"/>
<glyph glyph-name=".notdef" horiz-adv-x="1000"/>
<glyph glyph-name=".notdef" horiz-adv-x="1000"/>
<glyph glyph-name=".null" horiz-adv-x="0"/>
<glyph glyph-name="nonmarkingreturn" horiz-adv-x="333"/>
<glyph glyph-name="space" horiz-adv-x="244" unicode=" "/>
<glyph glyph-name="exclam" horiz-adv-x="224" unicode="!" d="M112 -7q-15 0 -26.5 11.5t-11.5 26.5q0 16 11.5 27.5t26.5 11.5t26.5 -11.5t11.5 -27.5t-11.5 -27t-26.5 -11zM97 170l-7 510h44l-7 -510h-30z"/>
<glyph glyph-name="quotedbl" horiz-adv-x="225" unicode='&quot;' d="M47 487l-5 193h41l-5 -193h-31zM147 487l-5 193h41l-5 -193h-31z"/>
<glyph glyph-name="numbersign" horiz-adv-x="431" unicode="#" d="M144 337h111l31 124h-111zM72 192l28 111h-72v34h80l31 124h-80v34h88l29 115h36l-29 -115h111l29 115h36l-29 -115h73v-34h-81l-31 -124h80v-34h-89l-27 -111h-37l28 111h-111l-27 -111h-36z"/>
<glyph glyph-name="dollar" horiz-adv-x="404" unicode="$" d="M217 26q54 3 85 29t31 69t-23.5 65t-82.5 42l-10 3v-208zM183 469q-45 -3 -71.5 -25t-26.5 -61q0 -38 22 -58.5t73 -38.5l3 -1v184zM183 -7q-57 6 -100.5 36t-62.5 70l33 16q40 -78 130 -88v219l-12 4q-63 21 -94 51t-31 82q0 51 39 83.5t98 36.5v107h34v-108 q46 -5 80.5 -29.5t50.5 -57.5l-31 -17q-35 62 -100 70v-195l19 -6q72 -25 104 -57t32 -86q0 -57 -42 -93t-113 -39v-112h-34v113z"/>
<glyph glyph-name="percent" horiz-adv-x="723" unicode="%" d="M551 25q44 0 74.5 30.5t30.5 78.5q0 47 -30.5 77.5t-74.5 30.5t-74.5 -30.5t-30.5 -77.5q0 -48 30.5 -78.5t74.5 -30.5zM173 252q44 0 74.5 30.5t30.5 78.5t-30.5 78t-74.5 30q-45 0 -75.5 -30t-30.5 -78t31 -78.5t75 -30.5zM551 -8q-58 0 -100 40.5t-42 101.5 q0 60 42.5 101t99.5 41t99.5 -41t42.5 -101q0 -61 -42 -101.5t-100 -40.5zM188 0l308 495h40l-308 -495h-40zM173 219q-58 0 -100.5 40.5t-42.5 101.5q0 60 42.5 101t100.5 41q57 0 99.5 -41t42.5 -101q0 -61 -42.5 -101.5t-99.5 -40.5z"/>
<glyph glyph-name="ampersand" horiz-adv-x="635" unicode="&amp;" d="M440 148l-187 225q-41 -24 -63.5 -39t-50 -40t-39.5 -55t-12 -68q0 -66 41 -104t110 -38q131 0 201 119zM264 421q52 31 80.5 63.5t28.5 73.5q0 42 -25 67.5t-64 25.5q-41 0 -65.5 -25t-24.5 -68q0 -53 43 -104zM287 393l172 -207q33 80 33 185h38q0 -124 -44 -217 l128 -154h-51l-98 118q-81 -126 -226 -126q-87 0 -140 48.5t-53 130.5q0 43 14 77.5t45.5 63.5t55 45t69.5 43l-22 27q-54 66 -54 131q0 56 36 93t94 37q56 0 92.5 -37.5t36.5 -92.5q0 -86 -126 -165z"/>
<glyph glyph-name="quotesingle" horiz-adv-x="125" unicode="&apos;" d="M47 487l-5 193h41l-5 -193h-31z"/>
<glyph glyph-name="parenleft" horiz-adv-x="261" unicode="(" d="M206 -136q-165 175 -165 427t165 427l26 -23q-150 -171 -150 -404t150 -404z"/>
<glyph glyph-name="parenright" horiz-adv-x="261" unicode=")" d="M55 -136l-26 23q149 170 149 404t-149 404l26 23q165 -177 165 -427t-165 -427z"/>
<glyph glyph-name="asterisk" horiz-adv-x="379" unicode="*" d="M171 382l8 131l-106 -68l-18 32l119 55l-119 55l18 32l106 -68l-8 129h37l-8 -129l106 68l18 -32l-119 -55l118 -55l-17 -32l-106 68l8 -131h-37z"/>
<glyph glyph-name="plus" horiz-adv-x="355" unicode="+" d="M158 95v132h-119v36h119v132h38v-132h120v-36h-120v-132h-38z"/>
<glyph glyph-name="comma" d="M40 -111l39 107q-29 7 -29 37q0 16 12.5 28t27.5 12q16 0 28 -12t12 -28q0 -11 -4 -19l-61 -125h-25z" unicode=","/>
<glyph glyph-name="hyphen" horiz-adv-x="278" unicode="-" d="M51 208v36h175v-36h-175z"/>
<glyph glyph-name="hyphen" horiz-adv-x="278" unicode="­" d="M51 208v36h175v-36h-175z"/>
<glyph glyph-name="period" d="M90 -7q-15 0 -27.5 12t-12.5 28q0 17 12 28.5t28 11.5t28 -11.5t12 -28.5q0 -16 -12 -28t-28 -12z" unicode="."/>
<glyph glyph-name="slash" horiz-adv-x="440" unicode="/" d="M29 -128l311 850h41l-311 -850h-41z"/>
<glyph glyph-name="zero" horiz-adv-x="605" unicode="0" d="M302 28q92 0 155 63.5t63 156.5q0 94 -63 156.5t-155 62.5t-154.5 -62t-62.5 -157q0 -94 62.5 -157t154.5 -63zM302 -8q-106 0 -182 74t-76 182q0 109 75.5 182t182.5 73t183 -73t76 -182q0 -108 -76 -182t-183 -74z"/>
<glyph glyph-name="one" horiz-adv-x="262" unicode="1" d="M140 0v460h-117v35h157v-495h-40z"/>
<glyph glyph-name="two" horiz-adv-x="466" unicode="2" d="M33 0v7l205 174q59 50 88 91t29 85q0 54 -31.5 82t-83.5 28q-105 0 -142 -113l-35 10q17 65 64.5 102t112.5 37q69 0 112 -38.5t43 -107.5q0 -51 -33 -98t-97 -101l-112 -94l-45 -31q30 3 49 3h254v-36h-378z"/>
<glyph glyph-name="three" horiz-adv-x="479" unicode="3" d="M232 -103q-70 0 -125.5 33t-81.5 92l34 17q53 -106 173 -106q69 0 116 43.5t47 120.5q0 75 -43 115.5t-121 40.5q-39 0 -79 -17l-6 8l174 190l28 29q-23 -3 -42 -3h-231v35h342v-4l-163 -179q-5 -6 -13 -12.5t-13 -9.5l-6 -4q3 0 9 0.5t9 0.5q88 0 142 -52.5t54 -137.5 q0 -92 -59.5 -146t-144.5 -54z"/>
<glyph glyph-name="four" horiz-adv-x="506" unicode="4" d="M356 68v301l3 48q-16 -25 -29 -42l-215 -273l-34 -37q27 3 46 3h229zM396 68h77v-37h-77v-125h-40v125h-337v7l369 469h8v-439z"/>
<glyph glyph-name="five" horiz-adv-x="475" unicode="5" d="M227 -103q-65 0 -114 26.5t-75 71.5l31 20q51 -82 158 -82q74 0 119.5 45.5t45.5 120.5q0 76 -42 119.5t-121 43.5q-80 0 -143 -55l-7 2v286h322v-35h-286v-194q51 32 117 32q89 0 145 -55.5t56 -143.5q0 -89 -59 -145.5t-147 -56.5z"/>
<glyph glyph-name="six" horiz-adv-x="497" unicode="6" d="M248 28q71 0 117.5 45.5t46.5 116.5q0 75 -43.5 119t-119.5 44q-73 0 -118.5 -47.5t-45.5 -115.5q0 -72 44.5 -117t118.5 -45zM249 -8q-88 0 -146 55.5t-58 142.5q0 59 57 147l181 273h44l-144 -218l-40 -49q50 46 111 46q86 0 142 -56.5t56 -142.5q0 -84 -57.5 -141 t-145.5 -57z"/>
<glyph glyph-name="seven" horiz-adv-x="434" unicode="7" d="M84 -94l267 554h-316v35h370v-7l-280 -582h-41z"/>
<glyph glyph-name="eight" horiz-adv-x="511" unicode="8" d="M255 29q78 0 125.5 40t47.5 106q0 67 -48 107.5t-125 40.5t-124.5 -40.5t-47.5 -107.5t47 -106.5t125 -39.5zM255 359q57 0 91.5 31t34.5 81q0 49 -35.5 80.5t-90.5 31.5q-56 0 -90.5 -31.5t-34.5 -80.5q0 -51 34 -81.5t91 -30.5zM255 -8q-95 0 -154 51t-59 132 q0 62 39 106.5t104 60.5q-43 15 -68.5 48.5t-25.5 80.5q0 64 47.5 105.5t116.5 41.5q70 0 118 -41.5t48 -105.5q0 -47 -26 -80t-69 -49q65 -16 104 -60.5t39 -106.5q0 -81 -58.5 -132t-155.5 -51z"/>
<glyph glyph-name="nine" horiz-adv-x="505" unicode="9" d="M252 136q74 0 121 48t47 118q0 72 -46.5 118.5t-120.5 46.5t-121 -46t-47 -119q0 -76 45.5 -121t121.5 -45zM198 -94l130 198q5 8 12.5 16.5t15 16.5t8.5 9q-16 -16 -61 -31t-56 -15l1 1q-88 0 -145.5 57t-57.5 144q0 84 59.5 142.5t148.5 58.5t148 -57t59 -144 q0 -59 -58 -150l-160 -246h-44z"/>
<glyph glyph-name="colon" horiz-adv-x="190" unicode=":" d="M95 -7q-15 0 -27.5 12t-12.5 28q0 17 12.5 29t27.5 12q16 0 28 -12t12 -29q0 -16 -12 -28t-28 -12zM95 214q-15 0 -27.5 12t-12.5 28q0 17 12.5 29t27.5 12q16 0 28 -12t12 -29q0 -16 -12 -28t-28 -12z"/>
<glyph glyph-name="less" horiz-adv-x="355" unicode="&lt;" d="M300 105l-258 134v10l258 132v-39l-196 -98l196 -99v-40z"/>
<glyph glyph-name="equal" horiz-adv-x="355" unicode="=" d="M45 170v36h265v-36h-265zM45 283v36h265v-36h-265z"/>
<glyph glyph-name="greater" horiz-adv-x="355" unicode="&gt;" d="M55 105v39l196 98l-196 99v40l258 -134v-10z"/>
<glyph glyph-name="question" horiz-adv-x="449" unicode="?" d="M192 -7q-15 0 -26.5 11.5t-11.5 26.5q0 16 11.5 27.5t26.5 11.5t26.5 -11.5t11.5 -27.5t-11.5 -27t-26.5 -11zM174 166v185h27q68 0 111 43.5t43 107.5q0 71 -40 110t-105 39q-55 0 -91 -23.5t-61 -77.5l-34 17q23 58 72 89.5t114 31.5q82 0 134 -49.5t52 -136.5 q0 -78 -52.5 -130t-131.5 -55v-151h-38z"/>
<glyph glyph-name="at" horiz-adv-x="868" unicode="@" d="M423 26q60 0 100.5 45t40.5 108q0 65 -40.5 111t-100.5 46t-99 -45.5t-39 -111.5q0 -64 39 -108.5t99 -44.5zM435 -206q-161 0 -271 110.5t-110 280.5q0 165 111 278t270 113q161 0 270 -107t109 -261q0 -108 -40 -161t-101 -53q-46 0 -73.5 26.5t-31.5 74.5 q-44 -103 -148 -103q-74 0 -124.5 53.5t-50.5 133.5q0 82 50.5 136.5t124.5 54.5q100 0 145 -98l-2 89h39v-235q0 -99 71 -99q46 0 74.5 44.5t28.5 136.5q0 138 -94 236t-247 98q-149 0 -245.5 -104t-96.5 -253q0 -152 96 -254.5t246 -102.5q95 0 167 45l18 -30 q-79 -49 -185 -49z"/>
<glyph glyph-name="A" horiz-adv-x="651" unicode="A" d="M151 168h347l-153 388l-20 62q-10 -38 -20 -62zM44 0l275 688h12l276 -688h-42l-52 132h-376l-52 -132h-41z"/>
<glyph glyph-name="B" horiz-adv-x="608" unicode="B" d="M144 36h200q90 0 131.5 43t41.5 116q0 72 -43 115.5t-131 43.5h-199v-318zM144 390h189q127 0 127 127t-145 127h-171v-254zM103 0v680h216q91 0 136.5 -45t45.5 -118q0 -111 -84 -140q64 -15 102.5 -64t38.5 -118q0 -87 -52.5 -141t-156.5 -54h-246z"/>
<glyph glyph-name="C" horiz-adv-x="731" unicode="C" d="M405 -8q-147 0 -247.5 97.5t-100.5 250.5t100.5 250.5t247.5 97.5q181 0 270 -129l-31 -23q-81 115 -239 115q-131 0 -218.5 -89t-87.5 -222t87.5 -222t218.5 -89q162 0 247 121l31 -22q-45 -65 -117.5 -100.5t-160.5 -35.5z"/>
<glyph glyph-name="D" horiz-adv-x="677" unicode="D" d="M144 37h99q164 0 249 82.5t85 220.5t-85 220.5t-249 82.5h-99v-606zM103 0v680h145q175 0 273.5 -91t98.5 -249t-98 -249t-274 -91h-145z"/>
<glyph glyph-name="E" horiz-adv-x="573" unicode="E" d="M103 0v680h397v-36h-356v-364h319v-36h-319v-208h370v-36h-411z"/>
<glyph glyph-name="F" horiz-adv-x="556" unicode="F" d="M103 0v680h396v-36h-355v-364h322v-37h-322v-243h-41z"/>
<glyph glyph-name="G" horiz-adv-x="745" unicode="G" d="M407 -8q-148 0 -249 97.5t-101 250.5t101.5 250.5t249.5 97.5q151 0 232 -85l-27 -28q-73 76 -205 76q-133 0 -221 -88.5t-88 -222.5q0 -133 88 -222t220 -89q146 0 232 80v158h-219v36h259v-210q-99 -101 -272 -101z"/>
<glyph glyph-name="H" horiz-adv-x="684" unicode="H" d="M103 0v680h41v-400h396v400h41v-680h-41v243h-396v-243h-41z"/>
<glyph glyph-name="I" horiz-adv-x="255" unicode="I" d="M107 0v680h41v-680h-41z"/>
<glyph glyph-name="J" horiz-adv-x="476" unicode="J" d="M202 -8q-107 0 -160 90l33 22q44 -75 126 -75q59 0 94 36t35 105v510h41v-512q0 -84 -47 -130t-122 -46z"/>
<glyph glyph-name="K" horiz-adv-x="587" unicode="K" d="M140 240q34 59 41 68l294 372h46l-264 -338l290 -342h-51l-265 313l-87 -107v-206h-41v680h41v-363q0 -17 -4 -77z"/>
<glyph glyph-name="L" horiz-adv-x="512" unicode="L" d="M103 0v680h41v-644h327v-36h-368z"/>
<glyph glyph-name="M" horiz-adv-x="840" unicode="M" d="M103 0v688h10l307 -404l307 404h10v-688h-39v540l2 59q-19 -33 -37 -56l-239 -314h-11l-236 314l-37 56q2 -35 2 -59v-540h-39z"/>
<glyph glyph-name="N" horiz-adv-x="719" unicode="N" d="M604 -8l-435 564l-31 45q3 -31 3 -51v-550h-38v688h12l435 -564l31 -45q-3 31 -3 51v550h38v-688h-12z"/>
<glyph glyph-name="O" horiz-adv-x="810" unicode="O" d="M405 29q131 0 218.5 89t87.5 222t-87.5 222t-218.5 89t-218.5 -89t-87.5 -222t87.5 -222t218.5 -89zM405 -8q-147 0 -247.5 97.5t-100.5 250.5t100.5 250.5t247.5 97.5t247.5 -97.5t100.5 -250.5t-100.5 -250.5t-247.5 -97.5z"/>
<glyph glyph-name="P" horiz-adv-x="576" unicode="P" d="M144 211h94q121 0 176 59t55 157q0 99 -55 158t-176 59h-94v-433zM103 0v680h139q133 0 201 -68.5t68 -184.5q0 -113 -68 -182.5t-201 -69.5h-98v-175h-41z"/>
<glyph glyph-name="Q" horiz-adv-x="810" unicode="Q" d="M592 90l-112 117l29 26l112 -118q90 90 90 225q0 133 -87.5 222t-218.5 89t-218.5 -89t-87.5 -222t87.5 -222t218.5 -89q107 0 187 61zM649 86l106 -111l-29 -26l-107 112q-93 -69 -214 -69q-147 0 -247.5 97.5t-100.5 250.5t100.5 250.5t247.5 97.5t247.5 -97.5 t100.5 -250.5q0 -155 -104 -254z"/>
<glyph glyph-name="R" horiz-adv-x="588" unicode="R" d="M144 221h92q121 0 177 59t56 152t-56 152.5t-177 59.5h-92v-423zM365 207l151 -207h-49l-142 194q-37 -9 -85 -9h-96v-185h-41v680h137q132 0 201.5 -69.5t69.5 -178.5q0 -78 -37 -137.5t-109 -87.5z"/>
<glyph glyph-name="S" horiz-adv-x="527" unicode="S" d="M265 -8q-162 0 -228 136l35 17q62 -117 192 -117q69 0 115.5 37.5t46.5 100.5q0 57 -32.5 94.5t-106.5 71.5l-63 29q-75 35 -108.5 74t-33.5 101q0 69 48 110.5t119 41.5q113 0 174 -98l-32 -21q-52 83 -142 83q-59 0 -93 -31.5t-34 -83.5q0 -50 26.5 -80t91.5 -60 l63 -29q84 -38 123.5 -85.5t39.5 -116.5q0 -79 -56 -126.5t-145 -47.5z"/>
<glyph glyph-name="T" horiz-adv-x="539" unicode="T" d="M249 0v644h-216v36h473v-36h-216v-644h-41z"/>
<glyph glyph-name="U" horiz-adv-x="651" unicode="U" d="M325 -8q-102 0 -165.5 61.5t-63.5 172.5v454h41v-451q0 -96 51 -148.5t137 -52.5t137.5 52.5t51.5 148.5v451h41v-454q0 -111 -64.5 -172.5t-165.5 -61.5z"/>
<glyph glyph-name="V" horiz-adv-x="651" unicode="V" d="M320 -8l-276 688h44l220 -555l19 -62q10 40 19 62l220 555h41l-275 -688h-12z"/>
<glyph glyph-name="W" horiz-adv-x="950" unicode="W" d="M254 -8l-213 688h44l166 -547l11 -50q6 31 13 50l195 555h12l195 -555l12 -50q6 31 12 50l166 547h42l-213 -688h-11l-198 564l-11 51q-5 -30 -12 -51l-199 -564h-11z"/>
<glyph glyph-name="X" horiz-adv-x="623" unicode="X" d="M51 0l238 368l-201 312h47l166 -257l11 -25q8 17 13 25l166 257h44l-201 -311l239 -369h-47l-203 315l-12 25q-7 -17 -12 -25l-204 -315h-44z"/>
<glyph glyph-name="Y" horiz-adv-x="643" unicode="Y" d="M301 0v212l-257 468h46l217 -394l16 -41q9 25 18 41l216 394h43l-257 -469v-211h-42z"/>
<glyph glyph-name="Z" horiz-adv-x="580" unicode="Z" d="M45 0v10l413 634h-360v36h421v-10l-412 -634h423v-36h-485z"/>
<glyph glyph-name="bracketleft" horiz-adv-x="290" unicode="[" d="M83 -128v850h168v-35h-128v-780h128v-35h-168z"/>
<glyph glyph-name="backslash" horiz-adv-x="440" unicode="\" d="M370 -128l-311 850h41l311 -850h-41z"/>
<glyph glyph-name="bracketright" horiz-adv-x="290" unicode="]" d="M39 -128v35h128v780h-128v35h169v-850h-169z"/>
<glyph glyph-name="asciicircum" horiz-adv-x="407" unicode="^" d="M75 471l124 217h9l124 -217h-34l-94 151l-95 -151h-34z"/>
<glyph glyph-name="underscore" horiz-adv-x="244" unicode="_" d="M-2 -128v34h248v-34h-248z"/>
<glyph glyph-name="grave" horiz-adv-x="500" unicode="`" d="M236 497l-88 195h46l75 -195h-33z"/>
<glyph glyph-name="a" horiz-adv-x="463" unicode="a" d="M344 204h-139q-51 0 -83 -21t-32 -65q0 -91 119 -91q54 0 94.5 29t40.5 74v74zM344 236v20q0 127 -109 127q-87 0 -133 -70l-28 20q54 84 162 84q66 0 106.5 -40t40.5 -117v-260h-39l2 63q-47 -71 -141 -71q-71 0 -112.5 32.5t-41.5 92.5q0 58 43 88.5t106 30.5h144z"/>
<glyph glyph-name="b" horiz-adv-x="551" unicode="b" d="M292 27q75 0 120.5 50.5t45.5 127.5t-45.5 127t-120.5 50q-76 0 -123.5 -50t-47.5 -127t47.5 -127.5t123.5 -50.5zM297 -8q-58 0 -105.5 30.5t-69.5 79.5l2 -102h-39v722h39v-411q24 48 68.5 77t104.5 29q87 0 144.5 -61t57.5 -151q0 -91 -57.5 -152t-144.5 -61z"/>
<glyph glyph-name="c" horiz-adv-x="464" unicode="c" d="M259 -8q-87 0 -147 62t-60 150t60 150.5t147 62.5q99 0 155 -69l-28 -23q-46 57 -127 57q-74 0 -120 -50.5t-46 -127.5q0 -76 46 -126.5t120 -50.5q87 0 135 61l28 -23q-59 -73 -163 -73z"/>
<glyph glyph-name="d" horiz-adv-x="551" unicode="d" d="M259 27q76 0 123.5 50.5t47.5 127.5t-47.5 127t-123.5 50q-75 0 -120.5 -50t-45.5 -127t45.5 -127.5t120.5 -50.5zM254 -8q-87 0 -144.5 61t-57.5 152q0 90 57.5 151t144.5 61q60 0 104.5 -29t68.5 -77v411h39v-722h-39l2 102q-22 -49 -69.5 -79.5t-105.5 -30.5z"/>
<glyph glyph-name="e" horiz-adv-x="506" unicode="e" d="M93 228h324q-5 67 -46 111t-114 44q-68 0 -112 -43.5t-52 -111.5zM92 196q2 -75 48.5 -122t124.5 -47q91 0 143 64l26 -23q-61 -76 -169 -76q-95 0 -154 61t-59 151q0 88 59.5 150.5t145.5 62.5q91 0 146.5 -63t53.5 -158h-365z"/>
<glyph glyph-name="f" horiz-adv-x="285" unicode="f" d="M101 0v375h-65v33h65v210q0 59 26.5 88t68.5 29q61 0 90 -50l-30 -20q-23 35 -59 35q-57 0 -57 -83v-209h109v-33h-109v-375h-39z"/>
<glyph glyph-name="g" horiz-adv-x="462" unicode="g" d="M175 14q-115 -23 -115 -102q0 -49 42 -75t122 -26q77 0 125.5 28t48.5 80q0 43 -29.5 63t-107.5 26zM230 165q53 0 84 30t31 80t-31 79.5t-84 29.5q-54 0 -85.5 -29.5t-31.5 -79.5t31.5 -80t85.5 -30zM286 408h145v-33h-92q44 -39 44 -100q0 -62 -43 -102.5t-110 -40.5 q-47 0 -81 19q-23 -4 -35.5 -17t-12.5 -32q0 -44 59 -49l106 -10q89 -8 130 -37.5t41 -86.5q0 -66 -59.5 -104t-153.5 -38q-93 0 -148.5 35.5t-55.5 98.5q0 83 106 114q-60 16 -60 73q0 25 15.5 44.5t40.5 27.5q-48 40 -48 105q0 62 44 102t112 40q30 0 56 -9z"/>
<glyph glyph-name="h" horiz-adv-x="509" unicode="h" d="M84 0v722h39v-401q21 44 61.5 70t93.5 26q69 0 110.5 -43.5t41.5 -118.5v-255h-39v248q0 64 -30 98.5t-88 34.5q-67 0 -108.5 -41.5t-41.5 -111.5v-228h-39z"/>
<glyph glyph-name="i" horiz-adv-x="208" unicode="i" d="M85 0v408h39v-408h-39zM104 551q-13 0 -23 9.5t-10 23.5t10 23.5t23 9.5t23 -9.5t10 -23.5t-10 -23.5t-23 -9.5z"/>
<glyph glyph-name="j" horiz-adv-x="208" unicode="j" d="M33 -222q-53 0 -83 36l24 25q25 -27 57 -27q54 0 54 77v519h39v-520q0 -54 -25.5 -82t-65.5 -28zM104 551q-13 0 -23 9.5t-10 23.5t10 23.5t23 9.5t23 -9.5t10 -23.5t-10 -23.5t-23 -9.5z"/>
<glyph glyph-name="k" horiz-adv-x="449" unicode="k" d="M123 127v-127h-39v722h39v-508q0 -14 -3 -44l226 238h46l-164 -173l193 -235h-48l-172 209z"/>
<glyph glyph-name="l" horiz-adv-x="219" unicode="l" d="M90 0v722h39v-722h-39z"/>
<glyph glyph-name="m" horiz-adv-x="742" unicode="m" d="M84 0v408h39l-1 -83q19 43 54 67.5t80 24.5q50 0 83 -25.5t44 -67.5q22 45 60 69t83 24q62 0 99 -38.5t37 -105.5v-273h-39v266q0 115 -101 115q-56 0 -92.5 -39.5t-36.5 -107.5v-234h-39v266q0 115 -102 115q-56 0 -92.5 -39.5t-36.5 -107.5v-234h-39z"/>
<glyph glyph-name="n" horiz-adv-x="509" unicode="n" d="M84 0v408h39l-1 -91q20 47 61 73.5t95 26.5q69 0 110.5 -43.5t41.5 -118.5v-255h-39v248q0 64 -30 98.5t-88 34.5q-67 0 -108.5 -41.5t-41.5 -111.5v-228h-39z"/>
<glyph glyph-name="o" horiz-adv-x="528" unicode="o" d="M265 27q76 0 123.5 50.5t47.5 127.5t-47.5 127t-123.5 50t-124.5 -50.5t-48.5 -126.5t48.5 -127t124.5 -51zM265 -8q-89 0 -151 62.5t-62 150.5t62 150t151 62t150 -62t61 -150t-61 -150.5t-150 -62.5z"/>
<glyph glyph-name="p" horiz-adv-x="551" unicode="p" d="M292 27q75 0 120.5 50.5t45.5 127.5t-45.5 127t-120.5 50q-76 0 -123.5 -50t-47.5 -127t47.5 -127.5t123.5 -50.5zM85 -212v620h39l-2 -100q23 49 69 79t106 30q87 0 144.5 -61t57.5 -151q0 -91 -57.5 -152t-144.5 -61q-57 0 -103.5 30t-69.5 77v-311h-39z"/>
<glyph glyph-name="q" horiz-adv-x="551" unicode="q" d="M259 27q76 0 123.5 50.5t47.5 127.5t-47.5 127t-123.5 50q-75 0 -120.5 -50t-45.5 -127t45.5 -127.5t120.5 -50.5zM427 -212v311q-23 -47 -69.5 -77t-103.5 -30q-87 0 -144.5 61t-57.5 152q0 90 57.5 151t144.5 61q60 0 105.5 -30t69.5 -79l-2 100h39v-620h-39z"/>
<glyph glyph-name="r" horiz-adv-x="340" unicode="r" d="M84 0v408h39l-1 -82q35 90 119 90q46 0 74 -21l-19 -32q-23 17 -60 17q-47 0 -80 -39t-33 -109v-232h-39z"/>
<glyph glyph-name="s" horiz-adv-x="405" unicode="s" d="M211 -8q-61 0 -103 28.5t-61 73.5l34 15q38 -82 130 -82q46 0 74 21.5t28 56.5q0 39 -24.5 56t-88.5 37q-62 18 -94 42.5t-32 74.5q0 44 35 73t87 29q87 0 130 -77l-30 -18q-35 61 -100 61q-39 0 -62 -18.5t-23 -47.5q0 -34 21.5 -50.5t83.5 -35.5q66 -20 101 -46.5 t35 -78.5q0 -50 -37.5 -82t-103.5 -32z"/>
<glyph glyph-name="t" horiz-adv-x="313" unicode="t" d="M194 -8q-42 0 -68 28.5t-26 87.5v267h-64v33h64v213h39v-213h118v-33h-118v-266q0 -82 55 -82q37 0 65 30l25 -24q-36 -41 -90 -41z"/>
<glyph glyph-name="u" horiz-adv-x="509" unicode="u" d="M232 -9q-69 0 -110.5 43t-41.5 117v257h39v-251q0 -130 117 -130q67 0 108.5 41.5t41.5 111.5v228h39v-408h-39l1 90q-21 -46 -61.5 -72.5t-93.5 -26.5z"/>
<glyph glyph-name="v" horiz-adv-x="448" unicode="v" d="M220 -8l-188 416h42l135 -306l18 -52q8 32 17 52l132 306h40l-184 -416h-12z"/>
<glyph glyph-name="w" horiz-adv-x="680" unicode="w" d="M190 -8l-158 416h42l108 -294l15 -50q7 29 16 50l122 298h9l124 -297l17 -50q6 29 14 50l108 293h40l-158 -416h-10l-124 304l-15 47q-6 -28 -14 -47l-126 -304h-10z"/>
<glyph glyph-name="x" horiz-adv-x="450" unicode="x" d="M38 0l164 218l-141 190h47l98 -133l20 -33q8 20 18 33l100 133h43l-140 -187l165 -221h-47l-121 165l-20 33q-11 -21 -20 -33l-123 -165h-43z"/>
<glyph glyph-name="y" horiz-adv-x="449" unicode="y" d="M110 -212l103 242l-181 378h42l143 -302l16 -48q6 28 15 48l129 302h40l-267 -620h-40z"/>
<glyph glyph-name="z" horiz-adv-x="406" unicode="z" d="M36 0v10l274 364h-246v34h306v-11l-274 -363h274v-34h-334z"/>
<glyph glyph-name="braceleft" horiz-adv-x="345" unicode="{" d="M262 -128q-121 0 -121 144v158q0 40 -14.5 55.5t-44.5 15.5h-57v35h57q30 0 44.5 15.5t14.5 55.5v227q0 144 121 144h44v-35h-43q-40 0 -61 -24t-21 -85v-230q0 -71 -52 -85q52 -13 52 -86v-161q0 -61 21 -85t61 -24h43v-35h-44z"/>
<glyph glyph-name="bar" horiz-adv-x="218" unicode="|" d="M90 -128v850h38v-850h-38z"/>
<glyph glyph-name="braceright" horiz-adv-x="344" unicode="}" d="M39 -128v35h43q40 0 60.5 24t20.5 85v161q0 73 53 85q-53 12 -53 87v229q0 61 -20.5 85t-60.5 24h-43v35h44q120 0 120 -144v-226q0 -40 15 -56t45 -16h56v-35h-56q-30 0 -45 -15.5t-15 -54.5v-159q0 -144 -120 -144h-44z"/>
<glyph glyph-name="asciitilde" horiz-adv-x="386" unicode="~" d="M93 233l-34 3q2 46 22 71.5t53 25.5q20 0 35 -8.5t36 -29.5q20 -20 28.5 -25t20.5 -5q33 0 39 65l34 -3q-5 -96 -74 -96q-20 0 -34.5 9t-36.5 30q-20 19 -28 24t-21 5q-34 0 -40 -66z"/>
<glyph glyph-name="nbspace" horiz-adv-x="182" unicode=" "/>
<glyph glyph-name="exclamdown" horiz-adv-x="224" unicode="¡" d="M127 510l7 -510h-44l7 510h30zM112 687q15 0 26.5 -11.5t11.5 -26.5q0 -16 -11.5 -27.5t-26.5 -11.5t-26.5 11.5t-11.5 27.5t11.5 27t26.5 11z"/>
<glyph glyph-name="cent" horiz-adv-x="464" unicode="¢" d="M236 380q-65 -7 -104 -56.5t-39 -119.5t39 -119t104 -57v352zM236 -7q-79 9 -131.5 69t-52.5 142t52.5 142.5t131.5 68.5v108h34v-106q92 -4 144 -69l-28 -23q-42 53 -116 57v-355q80 4 124 61l28 -23q-55 -69 -152 -73v-108h-34v109z"/>
<glyph glyph-name="sterling" horiz-adv-x="528" unicode="£" d="M202 85q-48 39 -79 39q-26 0 -41 -13.5t-15 -36.5t15 -37t41 -14q29 0 51.5 17.5t27.5 44.5zM187 300h167v-33h-154q37 -101 38 -167q62 -50 92 -62q24 -10 47 -10q56 0 96 45l25 -25q-49 -56 -121 -56q-65 0 -146 69q-13 -31 -42 -50t-66 -19q-41 0 -66 23t-25 59 t25 58.5t66 22.5q36 0 80 -28q-5 51 -42 140h-94v33h81q-38 95 -38 154q0 70 50 117t126 47q65 0 109 -30.5t66 -76.5l-32 -16q-24 44 -56.5 65.5t-86.5 21.5q-62 0 -98.5 -34.5t-36.5 -94.5q0 -56 36 -153z"/>
<glyph glyph-name="currency" horiz-adv-x="632" unicode="¤" d="M127 287h-80v33h87q22 82 89 132.5t153 50.5q126 0 195 -96l-30 -23q-59 83 -165 83q-73 0 -126.5 -40t-73.5 -107h259v-33h-266q-3 -19 -3 -40q0 -23 3 -42h266v-33h-258q21 -66 74.5 -105t124.5 -39q112 0 169 86l32 -21q-64 -101 -201 -101q-86 0 -152.5 49.5 t-89.5 130.5h-87v33h80q-3 21 -3 42t3 40z"/>
<glyph glyph-name="yen" horiz-adv-x="551" unicode="¥" d="M255 0v123h-192v33h190l-50 84h-140v33h120l-134 222h45l161 -269q6 -10 11.5 -22.5t7.5 -20.5l3 -8q9 29 22 51l160 269h43l-135 -222h121v-33h-140l-51 -84h191v-33h-192v-123h-41z"/>
<glyph glyph-name="brokenbar" d="M90 197q-15 0 -27.5 12t-12.5 28q0 17 12 28.5t28 11.5t28 -11.5t12 -28.5q0 -16 -12 -28t-28 -12z" unicode="¦"/>
<glyph glyph-name="section" horiz-adv-x="481" unicode="§" d="M349 121q59 21 59 72q0 37 -21.5 60t-81.5 47l-96 39q-55 22 -83 56q-52 -25 -52 -82q0 -40 22 -63t79 -46l87 -34q55 -21 87 -49zM110 419q-15 30 -15 65q0 59 42 96.5t107 37.5q109 0 152 -100l-34 -15q-37 80 -118 80q-49 0 -79 -26t-30 -72q0 -40 20 -64.5t67 -44.5 l96 -39q69 -28 99 -62t30 -80q0 -33 -21 -58.5t-56 -39.5q22 -30 22 -69q0 -58 -40.5 -94.5t-112.5 -36.5q-62 0 -108.5 29.5t-70.5 78.5l34 16q44 -89 145 -89q52 0 82.5 26.5t30.5 69.5q0 37 -24 60.5t-78 44.5l-87 34q-68 27 -98.5 60t-30.5 84q0 72 76 108z"/>
<glyph glyph-name="dieresis" horiz-adv-x="500" unicode="¨" d="M174 521q-13 0 -22.5 9.5t-9.5 22.5t9.5 22.5t22.5 9.5t22.5 -9.5t9.5 -22.5t-9.5 -22.5t-22.5 -9.5zM326 521q-13 0 -22.5 9.5t-9.5 22.5t9.5 22.5t22.5 9.5t22.5 -9.5t9.5 -22.5t-9.5 -22.5t-22.5 -9.5z"/>
<glyph glyph-name="copyright" horiz-adv-x="600" unicode="©" d="M302 97q-60 0 -102 43.5t-42 106.5q0 64 42 107.5t102 43.5q65 0 110 -50l-27 -25q-31 40 -82 40q-46 0 -75.5 -33t-29.5 -83q0 -49 29.5 -82t74.5 -33q51 0 87 43l27 -25q-46 -53 -114 -53zM300 23q95 0 159 64t64 160q0 97 -64 161t-159 64t-159 -64t-64 -161 q0 -96 64 -160t159 -64zM300 -8q-106 0 -181 73.5t-75 181.5q0 110 75 183t181 73t181 -73t75 -183q0 -108 -75 -181.5t-181 -73.5z"/>
<glyph glyph-name="ordfeminine" horiz-adv-x="390" unicode="ª" d="M295 322h-111q-102 0 -102 -72q0 -75 100 -75q47 0 80 23t33 67v57zM295 354v5q0 63 -23.5 87t-69.5 24q-68 0 -111 -58l-25 19q45 72 136 72q60 0 95.5 -33.5t35.5 -106.5v-213h-38v47q-38 -55 -119 -55q-59 0 -96 28t-37 80q0 51 39 77.5t97 26.5h116z"/>
<glyph glyph-name="guillemotleft" horiz-adv-x="347" unicode="«" d="M134 40l-93 154v8l93 154h45l-95 -158l95 -158h-45zM261 40l-93 154v8l93 154h45l-95 -158l95 -158h-45z"/>
<glyph glyph-name="logicalnot" d="M90 197q-15 0 -27.5 12t-12.5 28q0 17 12 28.5t28 11.5t28 -11.5t12 -28.5q0 -16 -12 -28t-28 -12z" unicode="¬"/>
<glyph glyph-name="registered" horiz-adv-x="519" unicode="®" d="M217 449h29q74 0 74 64q0 68 -74 68h-29v-132zM302 433l52 -71h-39l-45 62q-14 -2 -22 -2h-31v-60h-33v246h64q53 0 79.5 -26.5t26.5 -68.5q0 -57 -52 -80zM258 299q81 0 133 51.5t52 132.5q0 82 -52 133.5t-133 51.5q-79 0 -130 -51.5t-51 -133.5q0 -81 51 -132.5 t130 -51.5zM258 270q-90 0 -153 61t-63 152t63 152.5t153 61.5q91 0 155 -61.5t64 -152.5t-64 -152t-155 -61z"/>
<glyph glyph-name="degree" horiz-adv-x="322" unicode="°" d="M161 324q32 0 51.5 21t19.5 53q0 33 -19.5 54t-51.5 21t-52 -21t-20 -54q0 -32 20 -53t52 -21zM161 294q-44 0 -75 30.5t-31 73.5q0 44 31 74.5t75 30.5t75 -30.5t31 -74.5q0 -43 -31 -73.5t-75 -30.5z"/>
<glyph glyph-name="twosuperior" d="M90 197q-15 0 -27.5 12t-12.5 28q0 17 12 28.5t28 11.5t28 -11.5t12 -28.5q0 -16 -12 -28t-28 -12z" unicode="²"/>
<glyph glyph-name="threesuperior" d="M90 197q-15 0 -27.5 12t-12.5 28q0 17 12 28.5t28 11.5t28 -11.5t12 -28.5q0 -16 -12 -28t-28 -12z" unicode="³"/>
<glyph glyph-name="acute" horiz-adv-x="500" unicode="´" d="M231 497l75 195h46l-88 -195h-33z"/>
<glyph glyph-name="mu" d="M90 197q-15 0 -27.5 12t-12.5 28q0 17 12 28.5t28 11.5t28 -11.5t12 -28.5q0 -16 -12 -28t-28 -12z" unicode="µ"/>
<glyph glyph-name="mu" d="M90 197q-15 0 -27.5 12t-12.5 28q0 17 12 28.5t28 11.5t28 -11.5t12 -28.5q0 -16 -12 -28t-28 -12z" unicode="μ"/>
<glyph glyph-name="paragraph" horiz-adv-x="586" unicode="¶" d="M236 368h80v276h-80q-63 0 -98 -38.5t-35 -99.5t35 -99.5t98 -38.5zM316 0v332h-80q-79 0 -127.5 50t-48.5 124t48.5 124t127.5 50h247v-680h-40v644h-86v-644h-41z"/>
<glyph glyph-name="cedilla" horiz-adv-x="500" unicode="¸" d="M255 -228q-68 0 -94 58l30 18q21 -43 63 -43q22 0 37 14t15 38t-15.5 39.5t-46.5 15.5h-15v88h36v-59q33 -4 56.5 -27t23.5 -58q0 -39 -26.5 -61.5t-63.5 -22.5z"/>
<glyph glyph-name="onesuperior" d="M90 197q-15 0 -27.5 12t-12.5 28q0 17 12 28.5t28 11.5t28 -11.5t12 -28.5q0 -16 -12 -28t-28 -12z" unicode="¹"/>
<glyph glyph-name="ordmasculine" horiz-adv-x="442" unicode="º" d="M221 176q61 0 100 41.5t39 105.5t-39 105.5t-100 41.5t-100 -41.5t-39 -105.5t39 -105.5t100 -41.5zM221 143q-74 0 -126 51.5t-52 128.5q0 76 52 128t126 52t126 -52t52 -128q0 -77 -52 -128.5t-126 -51.5z"/>
<glyph glyph-name="guillemotright" horiz-adv-x="347" unicode="»" d="M41 40l95 158l-95 158h45l93 -154v-8l-93 -154h-45zM168 40l95 158l-95 158h45l93 -154v-8l-93 -154h-45z"/>
<glyph glyph-name="onequarter" d="M90 197q-15 0 -27.5 12t-12.5 28q0 17 12 28.5t28 11.5t28 -11.5t12 -28.5q0 -16 -12 -28t-28 -12z" unicode="¼"/>
<glyph glyph-name="onehalf" d="M90 197q-15 0 -27.5 12t-12.5 28q0 17 12 28.5t28 11.5t28 -11.5t12 -28.5q0 -16 -12 -28t-28 -12z" unicode="½"/>
<glyph glyph-name="threequarters" d="M90 197q-15 0 -27.5 12t-12.5 28q0 17 12 28.5t28 11.5t28 -11.5t12 -28.5q0 -16 -12 -28t-28 -12z" unicode="¾"/>
<glyph glyph-name="questiondown" horiz-adv-x="449" unicode="¿" d="M275 514v-185h-27q-68 0 -111 -43.5t-43 -107.5q0 -71 40 -110t105 -39q55 0 91 23.5t61 77.5l34 -17q-23 -58 -72 -89.5t-114 -31.5q-82 0 -134 49.5t-52 136.5q0 78 52.5 130t131.5 55v151h38zM257 687q15 0 26.5 -11.5t11.5 -26.5q0 -16 -11.5 -27.5t-26.5 -11.5 t-26.5 11.5t-11.5 27.5t11.5 27t26.5 11z"/>
<glyph glyph-name="Agrave" horiz-adv-x="651" unicode="À" d="M151 168h347l-153 388l-20 62q-10 -38 -20 -62zM44 0l275 688h12l276 -688h-42l-52 132h-376l-52 -132h-41zM308 755l-88 195h46l75 -195h-33z"/>
<glyph glyph-name="Aacute" horiz-adv-x="651" unicode="Á" d="M151 168h347l-153 388l-20 62q-10 -38 -20 -62zM44 0l275 688h12l276 -688h-42l-52 132h-376l-52 -132h-41zM310 755l75 195h46l-88 -195h-33z"/>
<glyph glyph-name="Acircumflex" horiz-adv-x="651" unicode="Â" d="M151 168h347l-153 388l-20 62q-10 -38 -20 -62zM44 0l275 688h12l276 -688h-42l-52 132h-376l-52 -132h-41zM207 752l113 182h9l113 -182h-35l-82 119l-83 -119h-35z"/>
<glyph glyph-name="Atilde" horiz-adv-x="651" unicode="Ã" d="M151 168h347l-153 388l-20 62q-10 -38 -20 -62zM44 0l275 688h12l276 -688h-42l-52 132h-376l-52 -132h-41zM225 747l-34 3q2 46 22 71.5t53 25.5q20 0 35 -8.5t36 -29.5q20 -20 28.5 -25t20.5 -5q33 0 39 65l34 -3q-5 -96 -74 -96q-20 0 -34.5 9t-36.5 30q-20 19 -28 24 t-21 5q-34 0 -40 -66z"/>
<glyph glyph-name="Adieresis" horiz-adv-x="651" unicode="Ä" d="M151 168h347l-153 388l-20 62q-10 -38 -20 -62zM44 0l275 688h12l276 -688h-42l-52 132h-376l-52 -132h-41zM249 779q-13 0 -22.5 9.5t-9.5 22.5t9.5 22.5t22.5 9.5t22.5 -9.5t9.5 -22.5t-9.5 -22.5t-22.5 -9.5zM401 779q-13 0 -22.5 9.5t-9.5 22.5t9.5 22.5t22.5 9.5 t22.5 -9.5t9.5 -22.5t-9.5 -22.5t-22.5 -9.5z"/>
<glyph glyph-name="Aring" horiz-adv-x="651" unicode="Å" d="M151 168h347l-153 388l-20 62q-10 -38 -20 -62zM325 759q26 0 42 16.5t16 44.5t-16 44.5t-42 16.5t-42 -16.5t-16 -44.5t16 -44.5t42 -16.5zM44 0l275 688h12l276 -688h-42l-52 132h-376l-52 -132h-41zM325 728q-39 0 -66.5 27t-27.5 65t27.5 65t66.5 27t66.5 -27 t27.5 -65t-27.5 -65t-66.5 -27z"/>
<glyph glyph-name="AE" horiz-adv-x="936" unicode="Æ" d="M188 168h278v362l5 79q-20 -40 -40 -70zM32 0l448 680h383v-36h-356v-364h319v-36h-319v-208h370v-36h-411v132h-302l-87 -132h-45z"/>
<glyph glyph-name="Ccedilla" horiz-adv-x="731" unicode="Ç" d="M361 -6q-131 15 -217.5 110.5t-86.5 235.5q0 153 100.5 250.5t247.5 97.5q181 0 270 -129l-31 -23q-81 115 -239 115q-131 0 -218.5 -89t-87.5 -222t87.5 -222t218.5 -89q162 0 247 121l31 -22q-45 -65 -117.5 -100.5t-160.5 -35.5h-8v-51q33 -4 56.5 -27t23.5 -58 q0 -39 -26.5 -61.5t-63.5 -22.5q-68 0 -94 58l30 18q21 -43 63 -43q22 0 37 14t15 38t-15.5 39.5t-46.5 15.5h-15v82z"/>
<glyph glyph-name="Egrave" horiz-adv-x="573" unicode="È" d="M103 0v680h397v-36h-356v-364h319v-36h-319v-208h370v-36h-411zM292 755l-88 195h46l75 -195h-33z"/>
<glyph glyph-name="Eacute" horiz-adv-x="573" unicode="É" d="M103 0v680h397v-36h-356v-364h319v-36h-319v-208h370v-36h-411zM280 755l75 195h46l-88 -195h-33z"/>
<glyph glyph-name="Ecircumflex" horiz-adv-x="573" unicode="Ê" d="M103 0v680h397v-36h-356v-364h319v-36h-319v-208h370v-36h-411zM189 752l113 182h9l113 -182h-35l-82 119l-83 -119h-35z"/>
<glyph glyph-name="Edieresis" horiz-adv-x="573" unicode="Ë" d="M103 0v680h397v-36h-356v-364h319v-36h-319v-208h370v-36h-411zM230 779q-13 0 -22.5 9.5t-9.5 22.5t9.5 22.5t22.5 9.5t22.5 -9.5t9.5 -22.5t-9.5 -22.5t-22.5 -9.5zM382 779q-13 0 -22.5 9.5t-9.5 22.5t9.5 22.5t22.5 9.5t22.5 -9.5t9.5 -22.5t-9.5 -22.5t-22.5 -9.5z "/>
<glyph glyph-name="Igrave" horiz-adv-x="255" unicode="Ì" d="M107 0v680h41v-680h-41zM109 755l-88 195h46l75 -195h-33z"/>
<glyph glyph-name="Iacute" horiz-adv-x="255" unicode="Í" d="M107 0v680h41v-680h-41zM112 755l75 195h46l-88 -195h-33z"/>
<glyph glyph-name="Icircumflex" horiz-adv-x="255" unicode="Î" d="M107 0v680h41v-680h-41zM9 752l113 182h9l113 -182h-35l-82 119l-83 -119h-35z"/>
<glyph glyph-name="Idieresis" horiz-adv-x="255" unicode="Ï" d="M107 0v680h41v-680h-41zM51 779q-13 0 -22.5 9.5t-9.5 22.5t9.5 22.5t22.5 9.5t22.5 -9.5t9.5 -22.5t-9.5 -22.5t-22.5 -9.5zM203 779q-13 0 -22.5 9.5t-9.5 22.5t9.5 22.5t22.5 9.5t22.5 -9.5t9.5 -22.5t-9.5 -22.5t-22.5 -9.5z"/>
<glyph glyph-name="Eth" horiz-adv-x="677" unicode="Ð" d="M144 37h111q157 0 239.5 82.5t82.5 220.5t-82.5 220.5t-239.5 82.5h-111v-363h198v-36h-198v-207zM103 0v244h-88v36h88v400h157q167 0 263.5 -93.5t96.5 -246.5t-96 -246.5t-264 -93.5h-157z"/>
<glyph glyph-name="Ntilde" horiz-adv-x="719" unicode="Ñ" d="M604 -8l-435 564l-31 45q3 -31 3 -51v-550h-38v688h12l435 -564l31 -45q-3 31 -3 51v550h38v-688h-12zM259 747l-34 3q2 46 22 71.5t53 25.5q20 0 35 -8.5t36 -29.5q20 -20 28.5 -25t20.5 -5q33 0 39 65l34 -3q-5 -96 -74 -96q-20 0 -34.5 9t-36.5 30q-20 19 -28 24 t-21 5q-34 0 -40 -66z"/>
<glyph glyph-name="Ograve" horiz-adv-x="810" unicode="Ò" d="M405 29q131 0 218.5 89t87.5 222t-87.5 222t-218.5 89t-218.5 -89t-87.5 -222t87.5 -222t218.5 -89zM405 -8q-147 0 -247.5 97.5t-100.5 250.5t100.5 250.5t247.5 97.5t247.5 -97.5t100.5 -250.5t-100.5 -250.5t-247.5 -97.5zM391 755l-88 195h46l75 -195h-33z"/>
<glyph glyph-name="Oacute" horiz-adv-x="810" unicode="Ó" d="M405 29q131 0 218.5 89t87.5 222t-87.5 222t-218.5 89t-218.5 -89t-87.5 -222t87.5 -222t218.5 -89zM405 -8q-147 0 -247.5 97.5t-100.5 250.5t100.5 250.5t247.5 97.5t247.5 -97.5t100.5 -250.5t-100.5 -250.5t-247.5 -97.5zM386 755l75 195h46l-88 -195h-33z"/>
<glyph glyph-name="Ocircumflex" horiz-adv-x="810" unicode="Ô" d="M405 29q131 0 218.5 89t87.5 222t-87.5 222t-218.5 89t-218.5 -89t-87.5 -222t87.5 -222t218.5 -89zM405 -8q-147 0 -247.5 97.5t-100.5 250.5t100.5 250.5t247.5 97.5t247.5 -97.5t100.5 -250.5t-100.5 -250.5t-247.5 -97.5zM287 752l113 182h9l113 -182h-35l-82 119 l-83 -119h-35z"/>
<glyph glyph-name="Otilde" horiz-adv-x="810" unicode="Õ" d="M405 29q131 0 218.5 89t87.5 222t-87.5 222t-218.5 89t-218.5 -89t-87.5 -222t87.5 -222t218.5 -89zM405 -8q-147 0 -247.5 97.5t-100.5 250.5t100.5 250.5t247.5 97.5t247.5 -97.5t100.5 -250.5t-100.5 -250.5t-247.5 -97.5zM305 747l-34 3q2 46 22 71.5t53 25.5 q20 0 35 -8.5t36 -29.5q20 -20 28.5 -25t20.5 -5q33 0 39 65l34 -3q-5 -96 -74 -96q-20 0 -34.5 9t-36.5 30q-20 19 -28 24t-21 5q-34 0 -40 -66z"/>
<glyph glyph-name="Odieresis" horiz-adv-x="810" unicode="Ö" d="M405 29q131 0 218.5 89t87.5 222t-87.5 222t-218.5 89t-218.5 -89t-87.5 -222t87.5 -222t218.5 -89zM405 -8q-147 0 -247.5 97.5t-100.5 250.5t100.5 250.5t247.5 97.5t247.5 -97.5t100.5 -250.5t-100.5 -250.5t-247.5 -97.5zM329 779q-13 0 -22.5 9.5t-9.5 22.5 t9.5 22.5t22.5 9.5t22.5 -9.5t9.5 -22.5t-9.5 -22.5t-22.5 -9.5zM481 779q-13 0 -22.5 9.5t-9.5 22.5t9.5 22.5t22.5 9.5t22.5 -9.5t9.5 -22.5t-9.5 -22.5t-22.5 -9.5z"/>
<glyph glyph-name="multiply" d="M90 197q-15 0 -27.5 12t-12.5 28q0 17 12 28.5t28 11.5t28 -11.5t12 -28.5q0 -16 -12 -28t-28 -12z" unicode="×"/>
<glyph glyph-name="Oslash" horiz-adv-x="810" unicode="Ø" d="M405 29q131 0 218.5 89t87.5 222q0 123 -75 209l-438 -443q87 -77 207 -77zM174 131l437 443q-85 77 -206 77q-131 0 -218.5 -89t-87.5 -222q0 -123 75 -209zM84 -10l-25 24l88 89q-90 98 -90 237q0 149 101 248.5t247 99.5q135 0 233 -87l87 88l25 -24l-87 -88 q90 -98 90 -237q0 -149 -101 -248.5t-247 -99.5q-137 0 -233 87z"/>
<glyph glyph-name="Ugrave" horiz-adv-x="651" unicode="Ù" d="M325 -8q-102 0 -165.5 61.5t-63.5 172.5v454h41v-451q0 -96 51 -148.5t137 -52.5t137.5 52.5t51.5 148.5v451h41v-454q0 -111 -64.5 -172.5t-165.5 -61.5zM311 755l-88 195h46l75 -195h-33z"/>
<glyph glyph-name="Uacute" horiz-adv-x="651" unicode="Ú" d="M325 -8q-102 0 -165.5 61.5t-63.5 172.5v454h41v-451q0 -96 51 -148.5t137 -52.5t137.5 52.5t51.5 148.5v451h41v-454q0 -111 -64.5 -172.5t-165.5 -61.5zM306 755l75 195h46l-88 -195h-33z"/>
<glyph glyph-name="Ucircumflex" horiz-adv-x="651" unicode="Û" d="M325 -8q-102 0 -165.5 61.5t-63.5 172.5v454h41v-451q0 -96 51 -148.5t137 -52.5t137.5 52.5t51.5 148.5v451h41v-454q0 -111 -64.5 -172.5t-165.5 -61.5zM207 752l113 182h9l113 -182h-35l-82 119l-83 -119h-35z"/>
<glyph glyph-name="Udieresis" horiz-adv-x="651" unicode="Ü" d="M325 -8q-102 0 -165.5 61.5t-63.5 172.5v454h41v-451q0 -96 51 -148.5t137 -52.5t137.5 52.5t51.5 148.5v451h41v-454q0 -111 -64.5 -172.5t-165.5 -61.5zM249 779q-13 0 -22.5 9.5t-9.5 22.5t9.5 22.5t22.5 9.5t22.5 -9.5t9.5 -22.5t-9.5 -22.5t-22.5 -9.5zM401 779 q-13 0 -22.5 9.5t-9.5 22.5t9.5 22.5t22.5 9.5t22.5 -9.5t9.5 -22.5t-9.5 -22.5t-22.5 -9.5z"/>
<glyph glyph-name="Yacute" horiz-adv-x="643" unicode="Ý" d="M301 0v212l-257 468h46l217 -394l16 -41q9 25 18 41l216 394h43l-257 -469v-211h-42zM302 755l75 195h46l-88 -195h-33z"/>
<glyph glyph-name="Thorn" horiz-adv-x="576" unicode="Þ" d="M144 129h102q117 0 170 59t53 157q0 99 -53 158t-170 59h-102v-433zM103 0v680h41v-82h106q128 0 194.5 -70.5t66.5 -182.5t-66 -182t-195 -70h-106v-93h-41z"/>
<glyph glyph-name="germandbls" horiz-adv-x="520" unicode="ß" d="M263 -4q-38 0 -69 13l11 33q27 -11 58 -11q79 0 121.5 49t42.5 128q0 80 -50 128t-142 48h-5v36q61 6 96 46t35 102q0 66 -34 99t-84 33q-52 0 -86 -34t-34 -109v-557h-39v560q0 88 46.5 131.5t112.5 43.5q63 0 109 -43t46 -123q0 -56 -26 -98.5t-79 -62.5 q79 -12 127 -65.5t48 -134.5q0 -93 -54.5 -152.5t-150.5 -59.5z"/>
<glyph glyph-name="agrave" horiz-adv-x="463" unicode="à" d="M344 204h-139q-51 0 -83 -21t-32 -65q0 -91 119 -91q54 0 94.5 29t40.5 74v74zM344 236v20q0 127 -109 127q-87 0 -133 -70l-28 20q54 84 162 84q66 0 106.5 -40t40.5 -117v-260h-39l2 63q-47 -71 -141 -71q-71 0 -112.5 32.5t-41.5 92.5q0 58 43 88.5t106 30.5h144z M217 497l-88 195h46l75 -195h-33z"/>
<glyph glyph-name="aacute" horiz-adv-x="463" unicode="á" d="M344 204h-139q-51 0 -83 -21t-32 -65q0 -91 119 -91q54 0 94.5 29t40.5 74v74zM344 236v20q0 127 -109 127q-87 0 -133 -70l-28 20q54 84 162 84q66 0 106.5 -40t40.5 -117v-260h-39l2 63q-47 -71 -141 -71q-71 0 -112.5 32.5t-41.5 92.5q0 58 43 88.5t106 30.5h144z M212 497l75 195h46l-88 -195h-33z"/>
<glyph glyph-name="acircumflex" horiz-adv-x="463" unicode="â" d="M344 204h-139q-51 0 -83 -21t-32 -65q0 -91 119 -91q54 0 94.5 29t40.5 74v74zM344 236v20q0 127 -109 127q-87 0 -133 -70l-28 20q54 84 162 84q66 0 106.5 -40t40.5 -117v-260h-39l2 63q-47 -71 -141 -71q-71 0 -112.5 32.5t-41.5 92.5q0 58 43 88.5t106 30.5h144z M117 494l113 182h9l113 -182h-35l-82 119l-83 -119h-35z"/>
<glyph glyph-name="atilde" horiz-adv-x="463" unicode="ã" d="M344 204h-139q-51 0 -83 -21t-32 -65q0 -91 119 -91q54 0 94.5 29t40.5 74v74zM344 236v20q0 127 -109 127q-87 0 -133 -70l-28 20q54 84 162 84q66 0 106.5 -40t40.5 -117v-260h-39l2 63q-47 -71 -141 -71q-71 0 -112.5 32.5t-41.5 92.5q0 58 43 88.5t106 30.5h144z M129 489l-34 3q2 46 22 71.5t53 25.5q20 0 35 -8.5t36 -29.5q20 -20 28.5 -25t20.5 -5q33 0 39 65l34 -3q-5 -96 -74 -96q-20 0 -34.5 9t-36.5 30q-20 19 -28 24t-21 5q-34 0 -40 -66z"/>
<glyph glyph-name="adieresis" horiz-adv-x="463" unicode="ä" d="M344 204h-139q-51 0 -83 -21t-32 -65q0 -91 119 -91q54 0 94.5 29t40.5 74v74zM344 236v20q0 127 -109 127q-87 0 -133 -70l-28 20q54 84 162 84q66 0 106.5 -40t40.5 -117v-260h-39l2 63q-47 -71 -141 -71q-71 0 -112.5 32.5t-41.5 92.5q0 58 43 88.5t106 30.5h144z M158 521q-13 0 -22.5 9.5t-9.5 22.5t9.5 22.5t22.5 9.5t22.5 -9.5t9.5 -22.5t-9.5 -22.5t-22.5 -9.5zM310 521q-13 0 -22.5 9.5t-9.5 22.5t9.5 22.5t22.5 9.5t22.5 -9.5t9.5 -22.5t-9.5 -22.5t-22.5 -9.5z"/>
<glyph glyph-name="aring" horiz-adv-x="463" unicode="å" d="M344 204h-139q-51 0 -83 -21t-32 -65q0 -91 119 -91q54 0 94.5 29t40.5 74v74zM231 519q26 0 42 16.5t16 44.5t-16 44.5t-42 16.5t-42 -16.5t-16 -44.5t16 -44.5t42 -16.5zM344 236v20q0 127 -109 127q-87 0 -133 -70l-28 20q54 84 162 84q66 0 106.5 -40t40.5 -117v-260 h-39l2 63q-47 -71 -141 -71q-71 0 -112.5 32.5t-41.5 92.5q0 58 43 88.5t106 30.5h144zM231 488q-39 0 -66.5 27t-27.5 65t27.5 65t66.5 27t66.5 -27t27.5 -65t-27.5 -65t-66.5 -27z"/>
<glyph glyph-name="ae" horiz-adv-x="796" unicode="æ" d="M344 200h-139q-51 0 -83 -20.5t-32 -63.5q0 -89 119 -89q54 0 94.5 29t40.5 74v70zM384 232h323q-5 64 -46 107.5t-114 43.5q-66 0 -110.5 -43.5t-52.5 -107.5zM344 232v24q0 127 -109 127q-87 0 -133 -70l-28 20q54 84 162 84q55 0 91 -29t45 -85q25 52 71 83t104 31 q91 0 146.5 -62.5t53.5 -154.5h-365q2 -74 48.5 -123.5t124.5 -49.5q91 0 143 64l26 -23q-61 -76 -169 -76q-63 0 -110.5 30.5t-72.5 82.5q-11 -54 -60.5 -83.5t-106.5 -29.5q-69 0 -111.5 32t-42.5 91q0 56 44 86.5t105 30.5h144z"/>
<glyph glyph-name="ccedilla" horiz-adv-x="464" unicode="ç" d="M221 -5q-74 14 -121.5 72.5t-47.5 136.5q0 88 60 150.5t147 62.5q99 0 155 -69l-28 -23q-46 57 -127 57q-74 0 -120 -50.5t-46 -127.5q0 -76 46 -126.5t120 -50.5q87 0 135 61l28 -23q-59 -73 -163 -73h-2v-51q33 -4 56.5 -27t23.5 -58q0 -39 -26.5 -61.5t-63.5 -22.5 q-68 0 -94 58l30 18q21 -43 63 -43q22 0 37 14t15 38t-15.5 39.5t-46.5 15.5h-15v83z"/>
<glyph glyph-name="egrave" horiz-adv-x="506" unicode="è" d="M93 228h324q-5 67 -46 111t-114 44q-68 0 -112 -43.5t-52 -111.5zM92 196q2 -75 48.5 -122t124.5 -47q91 0 143 64l26 -23q-61 -76 -169 -76q-95 0 -154 61t-59 151q0 88 59.5 150.5t145.5 62.5q91 0 146.5 -63t53.5 -158h-365zM239 497l-88 195h46l75 -195h-33z"/>
<glyph glyph-name="eacute" horiz-adv-x="506" unicode="é" d="M93 228h324q-5 67 -46 111t-114 44q-68 0 -112 -43.5t-52 -111.5zM92 196q2 -75 48.5 -122t124.5 -47q91 0 143 64l26 -23q-61 -76 -169 -76q-95 0 -154 61t-59 151q0 88 59.5 150.5t145.5 62.5q91 0 146.5 -63t53.5 -158h-365zM234 497l75 195h46l-88 -195h-33z"/>
<glyph glyph-name="ecircumflex" horiz-adv-x="506" unicode="ê" d="M93 228h324q-5 67 -46 111t-114 44q-68 0 -112 -43.5t-52 -111.5zM92 196q2 -75 48.5 -122t124.5 -47q91 0 143 64l26 -23q-61 -76 -169 -76q-95 0 -154 61t-59 151q0 88 59.5 150.5t145.5 62.5q91 0 146.5 -63t53.5 -158h-365zM135 494l113 182h9l113 -182h-35l-82 119 l-83 -119h-35z"/>
<glyph glyph-name="edieresis" horiz-adv-x="506" unicode="ë" d="M93 228h324q-5 67 -46 111t-114 44q-68 0 -112 -43.5t-52 -111.5zM92 196q2 -75 48.5 -122t124.5 -47q91 0 143 64l26 -23q-61 -76 -169 -76q-95 0 -154 61t-59 151q0 88 59.5 150.5t145.5 62.5q91 0 146.5 -63t53.5 -158h-365zM177 521q-13 0 -22.5 9.5t-9.5 22.5 t9.5 22.5t22.5 9.5t22.5 -9.5t9.5 -22.5t-9.5 -22.5t-22.5 -9.5zM329 521q-13 0 -22.5 9.5t-9.5 22.5t9.5 22.5t22.5 9.5t22.5 -9.5t9.5 -22.5t-9.5 -22.5t-22.5 -9.5z"/>
<glyph glyph-name="igrave" horiz-adv-x="208" unicode="ì" d="M85 0v408h39v-408h-39zM88 497l-88 195h46l75 -195h-33z"/>
<glyph glyph-name="iacute" horiz-adv-x="208" unicode="í" d="M85 0v408h39v-408h-39zM87 497l75 195h46l-88 -195h-33z"/>
<glyph glyph-name="icircumflex" horiz-adv-x="208" unicode="î" d="M85 0v408h39v-408h-39zM-14 494l113 182h9l113 -182h-35l-82 119l-83 -119h-35z"/>
<glyph glyph-name="idieresis" horiz-adv-x="208" unicode="ï" d="M85 0v408h39v-408h-39zM28 521q-13 0 -22.5 9.5t-9.5 22.5t9.5 22.5t22.5 9.5t22.5 -9.5t9.5 -22.5t-9.5 -22.5t-22.5 -9.5zM180 521q-13 0 -22.5 9.5t-9.5 22.5t9.5 22.5t22.5 9.5t22.5 -9.5t9.5 -22.5t-9.5 -22.5t-22.5 -9.5z"/>
<glyph glyph-name="eth" horiz-adv-x="528" unicode="ð" d="M265 27q76 0 123.5 52t47.5 132q0 74 -47.5 122.5t-123.5 48.5t-124.5 -50.5t-48.5 -126.5t48.5 -127t124.5 -51zM282 598l-73 -71l-23 23l74 73q-47 53 -91 91l24 24q47 -37 93 -89l73 72l24 -24l-75 -74q168 -203 168 -412q0 -89 -61.5 -154t-149.5 -65 q-89 0 -151 62.5t-62 150.5t62 150t151 62q100 0 157 -84q-32 132 -140 265z"/>
<glyph glyph-name="ntilde" horiz-adv-x="509" unicode="ñ" d="M84 0v408h39l-1 -91q20 47 61 73.5t95 26.5q69 0 110.5 -43.5t41.5 -118.5v-255h-39v248q0 64 -30 98.5t-88 34.5q-67 0 -108.5 -41.5t-41.5 -111.5v-228h-39zM150 489l-34 3q2 46 22 71.5t53 25.5q20 0 35 -8.5t36 -29.5q20 -20 28.5 -25t20.5 -5q33 0 39 65l34 -3 q-5 -96 -74 -96q-20 0 -34.5 9t-36.5 30q-20 19 -28 24t-21 5q-34 0 -40 -66z"/>
<glyph glyph-name="ograve" horiz-adv-x="528" unicode="ò" d="M265 27q76 0 123.5 50.5t47.5 127.5t-47.5 127t-123.5 50t-124.5 -50.5t-48.5 -126.5t48.5 -127t124.5 -51zM265 -8q-89 0 -151 62.5t-62 150.5t62 150t151 62t150 -62t61 -150t-61 -150.5t-150 -62.5zM250 497l-88 195h46l75 -195h-33z"/>
<glyph glyph-name="oacute" horiz-adv-x="528" unicode="ó" d="M265 27q76 0 123.5 50.5t47.5 127.5t-47.5 127t-123.5 50t-124.5 -50.5t-48.5 -126.5t48.5 -127t124.5 -51zM265 -8q-89 0 -151 62.5t-62 150.5t62 150t151 62t150 -62t61 -150t-61 -150.5t-150 -62.5zM245 497l75 195h46l-88 -195h-33z"/>
<glyph glyph-name="ocircumflex" horiz-adv-x="528" unicode="ô" d="M265 27q76 0 123.5 50.5t47.5 127.5t-47.5 127t-123.5 50t-124.5 -50.5t-48.5 -126.5t48.5 -127t124.5 -51zM265 -8q-89 0 -151 62.5t-62 150.5t62 150t151 62t150 -62t61 -150t-61 -150.5t-150 -62.5zM146 494l113 182h9l113 -182h-35l-82 119l-83 -119h-35z"/>
<glyph glyph-name="otilde" horiz-adv-x="528" unicode="õ" d="M265 27q76 0 123.5 50.5t47.5 127.5t-47.5 127t-123.5 50t-124.5 -50.5t-48.5 -126.5t48.5 -127t124.5 -51zM265 -8q-89 0 -151 62.5t-62 150.5t62 150t151 62t150 -62t61 -150t-61 -150.5t-150 -62.5zM164 489l-34 3q2 46 22 71.5t53 25.5q20 0 35 -8.5t36 -29.5 q20 -20 28.5 -25t20.5 -5q33 0 39 65l34 -3q-5 -96 -74 -96q-20 0 -34.5 9t-36.5 30q-20 19 -28 24t-21 5q-34 0 -40 -66z"/>
<glyph glyph-name="odieresis" horiz-adv-x="528" unicode="ö" d="M265 27q76 0 123.5 50.5t47.5 127.5t-47.5 127t-123.5 50t-124.5 -50.5t-48.5 -126.5t48.5 -127t124.5 -51zM265 -8q-89 0 -151 62.5t-62 150.5t62 150t151 62t150 -62t61 -150t-61 -150.5t-150 -62.5zM188 521q-13 0 -22.5 9.5t-9.5 22.5t9.5 22.5t22.5 9.5t22.5 -9.5 t9.5 -22.5t-9.5 -22.5t-22.5 -9.5zM340 521q-13 0 -22.5 9.5t-9.5 22.5t9.5 22.5t22.5 9.5t22.5 -9.5t9.5 -22.5t-9.5 -22.5t-22.5 -9.5z"/>
<glyph glyph-name="divide" d="M90 197q-15 0 -27.5 12t-12.5 28q0 17 12 28.5t28 11.5t28 -11.5t12 -28.5q0 -16 -12 -28t-28 -12z" unicode="÷"/>
<glyph glyph-name="oslash" horiz-adv-x="528" unicode="ø" d="M402 315l-253 -246q48 -42 116 -42q76 0 123.5 50.5t47.5 127.5q0 65 -34 110zM127 93l253 246q-46 43 -115 43q-76 0 -124.5 -50.5t-48.5 -126.5q0 -63 35 -112zM428 341q48 -59 48 -136q0 -88 -61 -150.5t-150 -62.5q-80 0 -141 53l-59 -57l-23 23l59 57 q-49 60 -49 137q0 88 62 150t151 62q82 0 141 -53l57 56l22 -24z"/>
<glyph glyph-name="ugrave" horiz-adv-x="509" unicode="ù" d="M232 -9q-69 0 -110.5 43t-41.5 117v257h39v-251q0 -130 117 -130q67 0 108.5 41.5t41.5 111.5v228h39v-408h-39l1 90q-21 -46 -61.5 -72.5t-93.5 -26.5zM240 497l-88 195h46l75 -195h-33z"/>
<glyph glyph-name="uacute" horiz-adv-x="509" unicode="ú" d="M232 -9q-69 0 -110.5 43t-41.5 117v257h39v-251q0 -130 117 -130q67 0 108.5 41.5t41.5 111.5v228h39v-408h-39l1 90q-21 -46 -61.5 -72.5t-93.5 -26.5zM235 497l75 195h46l-88 -195h-33z"/>
<glyph glyph-name="ucircumflex" horiz-adv-x="509" unicode="û" d="M232 -9q-69 0 -110.5 43t-41.5 117v257h39v-251q0 -130 117 -130q67 0 108.5 41.5t41.5 111.5v228h39v-408h-39l1 90q-21 -46 -61.5 -72.5t-93.5 -26.5zM136 494l113 182h9l113 -182h-35l-82 119l-83 -119h-35z"/>
<glyph glyph-name="udieresis" horiz-adv-x="509" unicode="ü" d="M232 -9q-69 0 -110.5 43t-41.5 117v257h39v-251q0 -130 117 -130q67 0 108.5 41.5t41.5 111.5v228h39v-408h-39l1 90q-21 -46 -61.5 -72.5t-93.5 -26.5zM178 521q-13 0 -22.5 9.5t-9.5 22.5t9.5 22.5t22.5 9.5t22.5 -9.5t9.5 -22.5t-9.5 -22.5t-22.5 -9.5zM330 521 q-13 0 -22.5 9.5t-9.5 22.5t9.5 22.5t22.5 9.5t22.5 -9.5t9.5 -22.5t-9.5 -22.5t-22.5 -9.5z"/>
<glyph glyph-name="yacute" horiz-adv-x="449" unicode="ý" d="M110 -212l103 242l-181 378h42l143 -302l16 -48q6 28 15 48l129 302h40l-267 -620h-40zM205 497l75 195h46l-88 -195h-33z"/>
<glyph glyph-name="thorn" horiz-adv-x="551" unicode="þ" d="M292 27q75 0 120.5 50.5t45.5 127.5t-45.5 127t-120.5 50q-76 0 -123.5 -50t-47.5 -127t47.5 -127.5t123.5 -50.5zM85 -212v934h39v-411q24 48 68.5 77t104.5 29q87 0 144.5 -61t57.5 -151q0 -91 -57.5 -152t-144.5 -61q-57 0 -103.5 30t-69.5 77v-311h-39z"/>
<glyph glyph-name="OE" horiz-adv-x="983" unicode="Œ" d="M421 37h92v606h-92q-157 0 -239.5 -82.5t-82.5 -220.5t82.5 -220.5t239.5 -82.5zM416 0q-168 0 -263.5 93.5t-95.5 246.5t95.5 246.5t263.5 93.5h494v-36h-356v-364h319v-36h-319v-208h370v-36h-508z"/>
<glyph glyph-name="oe" horiz-adv-x="887" unicode="œ" d="M265 27q76 0 123.5 50.5t47.5 127.5t-47.5 127t-123.5 50t-124.5 -50.5t-48.5 -126.5t48.5 -127t124.5 -51zM474 228h324q-5 67 -46 111t-114 44q-68 0 -112 -43.5t-52 -111.5zM473 196q2 -75 48.5 -122t124.5 -47q91 0 143 64l26 -23q-61 -76 -169 -76q-72 0 -122 37 t-70 98q-22 -61 -72 -98t-117 -37q-89 0 -151 62.5t-62 150.5t62 150t151 62q68 0 118 -37.5t71 -98.5q21 61 70 98.5t114 37.5q91 0 146.5 -63t53.5 -158h-365z"/>
<glyph glyph-name="Scaron" horiz-adv-x="527" unicode="Š" d="M265 -8q-162 0 -228 136l35 17q62 -117 192 -117q69 0 115.5 37.5t46.5 100.5q0 57 -32.5 94.5t-106.5 71.5l-63 29q-75 35 -108.5 74t-33.5 101q0 69 48 110.5t119 41.5q113 0 174 -98l-32 -21q-52 83 -142 83q-59 0 -93 -31.5t-34 -83.5q0 -50 26.5 -80t91.5 -60 l63 -29q84 -38 123.5 -85.5t39.5 -116.5q0 -79 -56 -126.5t-145 -47.5zM244 749l-113 182h35l82 -119l83 119h35l-113 -182h-9z"/>
<glyph glyph-name="scaron" horiz-adv-x="405" unicode="š" d="M211 -8q-61 0 -103 28.5t-61 73.5l34 15q38 -82 130 -82q46 0 74 21.5t28 56.5q0 39 -24.5 56t-88.5 37q-62 18 -94 42.5t-32 74.5q0 44 35 73t87 29q87 0 130 -77l-30 -18q-35 61 -100 61q-39 0 -62 -18.5t-23 -47.5q0 -34 21.5 -50.5t83.5 -35.5q66 -20 101 -46.5 t35 -78.5q0 -50 -37.5 -82t-103.5 -32zM192 491l-113 182h35l82 -119l83 119h35l-113 -182h-9z"/>
<glyph glyph-name="Ydieresis" horiz-adv-x="643" unicode="Ÿ" d="M301 0v212l-257 468h46l217 -394l16 -41q9 25 18 41l216 394h43l-257 -469v-211h-42zM245 779q-13 0 -22.5 9.5t-9.5 22.5t9.5 22.5t22.5 9.5t22.5 -9.5t9.5 -22.5t-9.5 -22.5t-22.5 -9.5zM397 779q-13 0 -22.5 9.5t-9.5 22.5t9.5 22.5t22.5 9.5t22.5 -9.5t9.5 -22.5 t-9.5 -22.5t-22.5 -9.5z"/>
<glyph glyph-name="circumflex" horiz-adv-x="500" unicode="ˆ" d="M132 494l113 182h9l113 -182h-35l-82 119l-83 -119h-35z"/>
<glyph glyph-name="tilde" horiz-adv-x="500" unicode="˜" d="M150 489l-34 3q2 46 22 71.5t53 25.5q20 0 35 -8.5t36 -29.5q20 -20 28.5 -25t20.5 -5q33 0 39 65l34 -3q-5 -96 -74 -96q-20 0 -34.5 9t-36.5 30q-20 19 -28 24t-21 5q-34 0 -40 -66z"/>
<glyph glyph-name="pi" d="M90 197q-15 0 -27.5 12t-12.5 28q0 17 12 28.5t28 11.5t28 -11.5t12 -28.5q0 -16 -12 -28t-28 -12z" unicode="π"/>
<glyph glyph-name="endash" horiz-adv-x="389" unicode="–" d="M38 161v34h312v-34h-312z"/>
<glyph glyph-name="emdash" horiz-adv-x="607" unicode="—" d="M38 161v34h531v-34h-531z"/>
<glyph glyph-name="quoteleft" horiz-adv-x="178" unicode="‘" d="M89 504q-15 0 -27 12t-12 28q0 7 5 19l53 117h25l-32 -100q11 -2 19 -12.5t8 -23.5q0 -16 -12 -28t-27 -12z"/>
<glyph glyph-name="quotesinglbase" horiz-adv-x="178" unicode="‚" d="M45 -103l32 100q-11 2 -19 12.5t-8 23.5q0 16 12 28t27 12t27 -12t12 -28q0 -7 -5 -19l-53 -117h-25z"/>
<glyph glyph-name="quotedblleft" horiz-adv-x="309" unicode="“" d="M89 504q-15 0 -27 12t-12 28q0 7 5 19l53 117h25l-32 -100q11 -2 19 -12.5t8 -23.5q0 -16 -12 -28t-27 -12zM220 504q-15 0 -27 12t-12 28q0 7 5 19l53 117h25l-32 -100q11 -2 19 -12.5t8 -23.5q0 -16 -12 -28t-27 -12z"/>
<glyph glyph-name="quotedblright" horiz-adv-x="309" unicode="”" d="M45 511l32 100q-11 2 -19 12.5t-8 23.5q0 16 12 28t27 12t27 -12t12 -28q0 -7 -5 -19l-53 -117h-25zM176 511l32 100q-11 2 -19 12.5t-8 23.5q0 16 12 28t27 12t27 -12t12 -28q0 -7 -5 -19l-53 -117h-25z"/>
<glyph glyph-name="dagger" horiz-adv-x="325" unicode="†" d="M144 299v240h-96v33h96v108h37v-108h96v-33h-96v-240h-37z"/>
<glyph glyph-name="daggerdbl" horiz-adv-x="325" unicode="‡" d="M144 299v108h-96v33h96v99h-96v33h96v108h37v-108h96v-33h-96v-99h96v-33h-96v-108h-37z"/>
<glyph glyph-name="ellipsis" horiz-adv-x="558" unicode="…" d="M90 -7q-15 0 -27.5 12t-12.5 28q0 17 12 28.5t28 11.5t28 -11.5t12 -28.5q0 -16 -12 -28t-28 -12zM279 -7q-15 0 -27.5 12t-12.5 28q0 17 12 28.5t28 11.5t28 -11.5t12 -28.5q0 -16 -12 -28t-28 -12zM468 -7q-15 0 -27.5 12t-12.5 28q0 17 12 28.5t28 11.5t28 -11.5 t12 -28.5q0 -16 -12 -28t-28 -12z"/>
<glyph glyph-name="perthousand" horiz-adv-x="1057" unicode="‰" d="M551 25q44 0 74.5 30.5t30.5 78.5q0 47 -30.5 77.5t-74.5 30.5t-74.5 -30.5t-30.5 -77.5q0 -48 30.5 -78.5t74.5 -30.5zM885 25q44 0 74.5 30.5t30.5 78.5q0 47 -30.5 77.5t-74.5 30.5t-74.5 -30.5t-30.5 -77.5q0 -48 30.5 -78.5t74.5 -30.5zM173 252q44 0 74.5 30.5 t30.5 78.5t-30.5 78t-74.5 30q-45 0 -75.5 -30t-30.5 -78t31 -78.5t75 -30.5zM551 -8q-58 0 -100 40.5t-42 101.5q0 60 42.5 101t99.5 41t99.5 -41t42.5 -101q0 -61 -42 -101.5t-100 -40.5zM885 -8q-58 0 -100 40.5t-42 101.5q0 60 42.5 101t99.5 41t99.5 -41t42.5 -101 q0 -61 -42 -101.5t-100 -40.5zM188 0l308 495h40l-308 -495h-40zM173 219q-58 0 -100.5 40.5t-42.5 101.5q0 60 42.5 101t100.5 41q57 0 99.5 -41t42.5 -101q0 -61 -42.5 -101.5t-99.5 -40.5z"/>
<glyph glyph-name="guilsinglleft" horiz-adv-x="220" unicode="‹" d="M134 40l-93 154v8l93 154h45l-95 -158l95 -158h-45z"/>
<glyph glyph-name="guilsinglright" horiz-adv-x="220" unicode="›" d="M41 40l95 158l-95 158h45l93 -154v-8l-93 -154h-45z"/>
<glyph glyph-name="Euro" horiz-adv-x="632" unicode="€" d="M127 287h-80v33h87q22 82 89 132.5t153 50.5q126 0 195 -96l-30 -23q-59 83 -165 83q-73 0 -126.5 -40t-73.5 -107h259v-33h-266q-3 -19 -3 -40q0 -23 3 -42h266v-33h-258q21 -66 74.5 -105t124.5 -39q112 0 169 86l32 -21q-64 -101 -201 -101q-86 0 -152.5 49.5 t-89.5 130.5h-87v33h80q-3 21 -3 42t3 40z"/>
<glyph glyph-name="trademark" horiz-adv-x="732" unicode="™" d="M148 386v261h-94v33h224v-33h-93v-261h-37zM349 386v299h8l142 -167l142 167h8v-299h-37v217l-108 -130h-10l-108 130v-217h-37z"/>
<glyph glyph-name="partialdiff" d="M90 197q-15 0 -27.5 12t-12.5 28q0 17 12 28.5t28 11.5t28 -11.5t12 -28.5q0 -16 -12 -28t-28 -12z" unicode="∂"/>
<glyph glyph-name="product" d="M90 197q-15 0 -27.5 12t-12.5 28q0 17 12 28.5t28 11.5t28 -11.5t12 -28.5q0 -16 -12 -28t-28 -12z" unicode="∏"/>
<glyph glyph-name="summation" horiz-adv-x="810" unicode="∑" d="M405 30q131 0 218.5 88.5t87.5 221.5t-87.5 222t-218.5 89t-218.5 -89t-87.5 -222t87.5 -221.5t218.5 -88.5zM413 -5q13 -7 26 -17q28 -19 45 -29t47 -20t62 -10q65 0 109 46l29 -27q-53 -57 -138 -57q-79 0 -178 70q-32 22 -51.5 33.5t-52 23.5t-63.5 12q-80 0 -129 -76 l-28 22q47 70 122 83q-72 45 -114 121t-42 170q0 153 100.5 250.5t247.5 97.5t247.5 -97.5t100.5 -250.5q0 -149 -98 -245.5t-242 -99.5z"/>
<glyph glyph-name="minus" d="M90 197q-15 0 -27.5 12t-12.5 28q0 17 12 28.5t28 11.5t28 -11.5t12 -28.5q0 -16 -12 -28t-28 -12z" unicode="−"/>
<glyph glyph-name="radical" d="M90 197q-15 0 -27.5 12t-12.5 28q0 17 12 28.5t28 11.5t28 -11.5t12 -28.5q0 -16 -12 -28t-28 -12z" unicode="√"/>
<glyph glyph-name="approxequal" d="M90 197q-15 0 -27.5 12t-12.5 28q0 17 12 28.5t28 11.5t28 -11.5t12 -28.5q0 -16 -12 -28t-28 -12z" unicode="≈"/>
<glyph glyph-name="lessequal" d="M90 197q-15 0 -27.5 12t-12.5 28q0 17 12 28.5t28 11.5t28 -11.5t12 -28.5q0 -16 -12 -28t-28 -12z" unicode="≤"/>
<glyph glyph-name="greaterequal" d="M90 197q-15 0 -27.5 12t-12.5 28q0 17 12 28.5t28 11.5t28 -11.5t12 -28.5q0 -16 -12 -28t-28 -12z" unicode="≥"/>
<glyph glyph-name="lozenge" d="M90 197q-15 0 -27.5 12t-12.5 28q0 17 12 28.5t28 11.5t28 -11.5t12 -28.5q0 -16 -12 -28t-28 -12z" unicode="◊"/>
</font>
</defs>
</svg>
